<?xml version="1.0" encoding="UTF-8" standalone="no"?>
<svg
   xmlns:dc="http://purl.org/dc/elements/1.1/"
   xmlns:cc="http://creativecommons.org/ns#"
   xmlns:rdf="http://www.w3.org/1999/02/22-rdf-syntax-ns#"
   xmlns:svg="http://www.w3.org/2000/svg"
   xmlns="http://www.w3.org/2000/svg"
   id="svg2"
   height="900"
   width="1200"
   version="1.2">
  <defs
     id="defs4">
    <marker
       style="overflow:visible"
       id="marker15326"
       refX="0.0"
       refY="0.0"
       orient="auto">
      <path
         transform="scale(-0.4)"
         style="fill-rule:evenodd;stroke:#ff4d4d;stroke-width:1pt;stroke-opacity:1;fill:#ff4d4d;fill-opacity:1"
         d="M 5.77,0.0 L -2.88,5.0 L -2.88,-5.0 L 5.77,0.0 z "
         id="path15328" />
    </marker>
    <marker
       orient="auto"
       refY="0.0"
       refX="0.0"
       id="marker15160"
       style="overflow:visible">
      <path
         id="path15162"
         d="M 5.77,0.0 L -2.88,5.0 L -2.88,-5.0 L 5.77,0.0 z "
         style="fill-rule:evenodd;stroke:#ff4d4d;stroke-width:1pt;stroke-opacity:1;fill:#ff4d4d;fill-opacity:1"
         transform="scale(-0.2)" />
    </marker>
    <marker
       orient="auto"
       refY="0.0"
       refX="0.0"
       id="marker15028"
       style="overflow:visible">
      <path
         id="path15030"
         style="fill-rule:evenodd;stroke-width:0.625;stroke-linejoin:round;stroke:#ff4d4d;stroke-opacity:1;fill:#ff4d4d;fill-opacity:1"
         d="M 8.7185878,4.0337352 L -2.2072895,0.016013256 L 8.7185884,-4.0017078 C 6.9730900,-1.6296469 6.9831476,1.6157441 8.7185878,4.0337352 z "
         transform="scale(0.6) translate(0,0)" />
    </marker>
    <marker
       orient="auto"
       refY="0.0"
       refX="0.0"
       id="marker14952"
       style="overflow:visible">
      <path
         id="path14954"
         d="M 0.0,0.0 L 5.0,-5.0 L -12.5,0.0 L 5.0,5.0 L 0.0,0.0 z "
         style="fill-rule:evenodd;stroke:#ff4d4d;stroke-width:1pt;stroke-opacity:1;fill:#ff4d4d;fill-opacity:1"
         transform="scale(0.4) translate(10,0)" />
    </marker>
    <marker
       orient="auto"
       refY="0.0"
       refX="0.0"
       id="marker14868"
       style="overflow:visible">
      <path
         id="path14870"
         d="M 0.0,0.0 L 5.0,-5.0 L -12.5,0.0 L 5.0,5.0 L 0.0,0.0 z "
         style="fill-rule:evenodd;stroke:#ff4d4d;stroke-width:1pt;stroke-opacity:1;fill:#ff4d4d;fill-opacity:1"
         transform="scale(0.8) translate(12.5,0)" />
    </marker>
    <marker
       orient="auto"
       refY="0.0"
       refX="0.0"
       id="marker14754"
       style="overflow:visible">
      <path
         id="path14756"
         d="M 5.77,0.0 L -2.88,5.0 L -2.88,-5.0 L 5.77,0.0 z "
         style="fill-rule:evenodd;stroke:#ff4d4d;stroke-width:1pt;stroke-opacity:1;fill:#ff4d4d;fill-opacity:1"
         transform="scale(-0.4)" />
    </marker>
    <marker
       orient="auto"
       refY="0.0"
       refX="0.0"
       id="marker14712"
       style="overflow:visible">
      <path
         id="path14714"
         d="M 5.77,0.0 L -2.88,5.0 L -2.88,-5.0 L 5.77,0.0 z "
         style="fill-rule:evenodd;stroke:#ff4d4d;stroke-width:1pt;stroke-opacity:1;fill:#ff4d4d;fill-opacity:1"
         transform="scale(0.4)" />
    </marker>
    <linearGradient
       id="linearGradient8335">
      <stop
         offset="0"
         style="stop-color:#3d49b8;stop-opacity:1"
         id="stop8337" />
    </linearGradient>
  </defs>
  <metadata
     id="metadata7">
    <rdf:RDF>
      <cc:Work
         rdf:about="">
        <dc:format>image/svg+xml</dc:format>
        <dc:type
           rdf:resource="http://purl.org/dc/dcmitype/StillImage" />
        <dc:title></dc:title>
      </cc:Work>
    </rdf:RDF>
  </metadata>
  <text
     xml:space="preserve"
     style="font-style:normal;font-weight:normal;font-size:40px;line-height:100%;font-family:Sans;text-align:center;letter-spacing:0px;word-spacing:0px;text-anchor:middle;fill:#000000;fill-opacity:1;stroke:none;stroke-width:1px;stroke-linecap:butt;stroke-linejoin:miter;stroke-opacity:1"
     x="840.65741"
     y="306.05972"
     id="text16168"><tspan
       id="tspan16213"
       x="840.65741"
       y="306.05972"
       style="font-style:normal;font-variant:normal;font-weight:bold;font-stretch:normal;font-size:60px;line-height:100%;font-family:Arial;-inkscape-font-specification:Arial;fill:#ff4d4d;fill-opacity:1">Not enough</tspan><tspan
       id="tspan16222"
       x="840.65741"
       y="366.05972"
       style="font-style:normal;font-variant:normal;font-weight:bold;font-stretch:normal;font-size:60px;line-height:100%;font-family:Arial;-inkscape-font-specification:Arial;fill:#ff4d4d;fill-opacity:1">sleep</tspan><tspan
       id="tspan16224"
       x="840.65741"
       y="426.05972"
       style="font-style:normal;font-variant:normal;font-weight:bold;font-stretch:normal;font-size:60px;line-height:100%;font-family:Arial;-inkscape-font-specification:Arial;fill:#ff4d4d;fill-opacity:1">last night</tspan></text>
  <text
     id="text16160"
     y="306.05972"
     x="369.01559"
     style="font-style:normal;font-weight:normal;font-size:40px;line-height:100%;font-family:Sans;text-align:center;letter-spacing:0px;word-spacing:0px;text-anchor:middle;fill:#000000;fill-opacity:1;stroke:none;stroke-width:1px;stroke-linecap:butt;stroke-linejoin:miter;stroke-opacity:1"
     xml:space="preserve"><tspan
       style="font-style:normal;font-variant:normal;font-weight:bold;font-stretch:normal;font-size:60px;line-height:100%;font-family:Arial;-inkscape-font-specification:Arial;fill:#ff4d4d;fill-opacity:1"
       y="306.05972"
       x="369.01559"
       id="tspan16162">First time</tspan><tspan
       style="font-style:normal;font-variant:normal;font-weight:bold;font-stretch:normal;font-size:60px;line-height:100%;font-family:Arial;-inkscape-font-specification:Arial;fill:#ff4d4d;fill-opacity:1"
       id="tspan16164"
       y="366.05972"
       x="369.01559">contributing</tspan><tspan
       style="font-style:normal;font-variant:normal;font-weight:bold;font-stretch:normal;font-size:60px;line-height:100%;font-family:Arial;-inkscape-font-specification:Arial;fill:#ff4d4d;fill-opacity:1"
       id="tspan16166"
       y="426.05972"
       x="369.01559">to this program</tspan></text>
  <g
     style="fill:#9d68e5;fill-opacity:1"
     id="g6817"
     transform="matrix(0.11094929,0,0,-0.11094929,257.00065,703.93735)">
    <path
       style="fill:#9d68e5;fill-opacity:1"
       id="path6819"
       d="M 1408,131 Q 1408,11 1335,-58.5 1262,-128 1141,-128 H 267 Q 146,-128 73,-58.5 0,11 0,131 0,184 3.5,234.5 7,285 17.5,343.5 28,402 44,452 q 16,50 43,97.5 27,47.5 62,81 35,33.5 85.5,53.5 50.5,20 111.5,20 9,0 42,-21.5 33,-21.5 74.5,-48 41.5,-26.5 108,-48 Q 637,565 704,565 q 67,0 133.5,21.5 66.5,21.5 108,48 41.5,26.5 74.5,48 33,21.5 42,21.5 61,0 111.5,-20 50.5,-20 85.5,-53.5 35,-33.5 62,-81 27,-47.5 43,-97.5 16,-50 26.5,-108.5 10.5,-58.5 14,-109 Q 1408,184 1408,131 z m -320,893 Q 1088,865 975.5,752.5 863,640 704,640 545,640 432.5,752.5 320,865 320,1024 320,1183 432.5,1295.5 545,1408 704,1408 863,1408 975.5,1295.5 1088,1183 1088,1024 z" />
  </g>
  <g
     style="fill:#9d68e5;fill-opacity:1;stroke:none"
     id="g6006"
     transform="matrix(0.11094929,0,0,-0.11094929,749.76386,703.93735)">
    <path
       style="fill:#9d68e5;fill-opacity:1;stroke:none"
       id="path6008"
       d="M 1408,131 Q 1408,11 1335,-58.5 1262,-128 1141,-128 H 267 Q 146,-128 73,-58.5 0,11 0,131 0,184 3.5,234.5 7,285 17.5,343.5 28,402 44,452 q 16,50 43,97.5 27,47.5 62,81 35,33.5 85.5,53.5 50.5,20 111.5,20 9,0 42,-21.5 33,-21.5 74.5,-48 41.5,-26.5 108,-48 Q 637,565 704,565 q 67,0 133.5,21.5 66.5,21.5 108,48 41.5,26.5 74.5,48 33,21.5 42,21.5 61,0 111.5,-20 50.5,-20 85.5,-53.5 35,-33.5 62,-81 27,-47.5 43,-97.5 16,-50 26.5,-108.5 10.5,-58.5 14,-109 Q 1408,184 1408,131 z m -320,893 Q 1088,865 975.5,752.5 863,640 704,640 545,640 432.5,752.5 320,865 320,1024 320,1183 432.5,1295.5 545,1408 704,1408 863,1408 975.5,1295.5 1088,1183 1088,1024 z" />
  </g>
  <text
     style="font-size:32.67392731px;font-style:normal;font-weight:normal;line-height:125%;letter-spacing:0px;word-spacing:0px;fill:#469ae9;fill-opacity:1;stroke:none;font-family:Sans"
     xml:space="preserve"
     id="text6010"
     y="691.43646"
     x="981.50958"><tspan
       style="font-size:32.67392731px;font-style:normal;font-variant:normal;font-weight:bold;font-stretch:normal;text-align:center;text-anchor:middle;fill:#469ae9;fill-opacity:1;font-family:Courier New;-inkscape-font-specification:Courier New Bold"
       id="tspan6012"
       y="691.43646"
       x="981.50958">.git</tspan></text>
  <path
     style="fill:#469ae9;fill-opacity:1;stroke:none"
     id="path6014"
     d="m 978.83483,577.89325 h -28.72 c -5.2893,0 -9.5255,4.28406 -9.5255,9.57332 l -0.048,57.43992 c 0,5.28925 4.2841,9.57332 9.5734,9.57332 h 76.58647 c 5.2893,0 9.5733,-4.28407 9.5733,-9.57332 v -47.8666 c 0,-5.28927 -4.284,-9.57332 -9.5733,-9.57332 h -38.29327 l -9.5733,-9.57332 z" />
  <text
     style="font-size:32.67392731px;font-style:normal;font-weight:normal;line-height:125%;letter-spacing:0px;word-spacing:0px;fill:#469ae9;fill-opacity:1;stroke:none;font-family:Sans"
     xml:space="preserve"
     id="text6016"
     y="691.43646"
     x="981.50958"><tspan
       style="font-size:32.67392731px;font-style:normal;font-variant:normal;font-weight:bold;font-stretch:normal;text-align:center;text-anchor:middle;fill:#469ae9;fill-opacity:1;font-family:Courier New;-inkscape-font-specification:Courier New Bold"
       id="tspan6018"
       y="691.43646"
       x="981.50958">.git</tspan></text>
  <text
     style="font-size:32.67392731px;font-style:normal;font-weight:normal;line-height:125%;letter-spacing:0px;word-spacing:0px;fill:#469ae9;fill-opacity:1;stroke:none;font-family:Sans"
     xml:space="preserve"
     id="text6022"
     y="691.43646"
     x="487.67993"><tspan
       style="font-size:32.67392731px;font-style:normal;font-variant:normal;font-weight:bold;font-stretch:normal;text-align:center;text-anchor:middle;fill:#469ae9;fill-opacity:1;font-family:Courier New;-inkscape-font-specification:Courier New Bold"
       id="tspan6024"
       y="691.43646"
       x="487.67993">.git</tspan></text>
  <path
     style="fill:#469ae9;fill-opacity:1"
     id="path6026"
     d="m 485.00519,577.89325 h -28.72 c -5.2893,0 -9.5255,4.28406 -9.5255,9.57332 l -0.048,57.43992 c 0,5.28925 4.2841,9.57332 9.5734,9.57332 h 76.58647 c 5.2893,0 9.5733,-4.28407 9.5733,-9.57332 v -47.8666 c 0,-5.28927 -4.284,-9.57332 -9.5733,-9.57332 h -38.29327 l -9.5733,-9.57332 z" />
  <text
     style="font-size:32.67392731px;font-style:normal;font-weight:normal;line-height:125%;letter-spacing:0px;word-spacing:0px;fill:#469ae9;fill-opacity:1;stroke:none;font-family:Sans"
     xml:space="preserve"
     id="text6028"
     y="691.43646"
     x="487.67993"><tspan
       style="font-size:32.67392731px;font-style:normal;font-variant:normal;font-weight:bold;font-stretch:normal;text-align:center;text-anchor:middle;fill:#469ae9;fill-opacity:1;font-family:Courier New;-inkscape-font-specification:Courier New Bold"
       id="tspan6030"
       y="691.43646"
       x="487.67993">.git</tspan></text>
  <path
     style="fill:#469ae9;fill-opacity:1"
     id="path6032"
     d="m 485.00519,577.89325 h -28.72 c -5.2893,0 -9.5255,4.28406 -9.5255,9.57332 l -0.048,57.43992 c 0,5.28925 4.2841,9.57332 9.5734,9.57332 h 76.58647 c 5.2893,0 9.5733,-4.28407 9.5733,-9.57332 v -47.8666 c 0,-5.28927 -4.284,-9.57332 -9.5733,-9.57332 h -38.29327 l -9.5733,-9.57332 z" />
  <path
     style="fill:none;stroke:#ff4d4d;stroke-width:10;stroke-linecap:round;stroke-linejoin:round;stroke-miterlimit:4;stroke-dasharray:none;stroke-opacity:1;marker-start:url(#marker14754)"
     id="path6463"
     d="M 232.358,577.7969 C 114.62994,551.46299 182.78829,460.06885 182.78829,460.06885" />
  <path
     style="fill:none;stroke:#ff4d4d;stroke-width:10;stroke-linecap:round;stroke-linejoin:round;stroke-miterlimit:4;stroke-dasharray:none;stroke-opacity:1;marker-start:url(#marker15326)"
     id="path6465"
     d="M 726.38898,577.7969 C 608.66092,551.46299 676.81927,460.06885 676.81927,460.06885" />
</svg>
