<?xml version="1.0" encoding="UTF-8" standalone="no"?>
<!-- Created with Inkscape (http://www.inkscape.org/) -->

<svg
   xmlns:dc="http://purl.org/dc/elements/1.1/"
   xmlns:cc="http://creativecommons.org/ns#"
   xmlns:rdf="http://www.w3.org/1999/02/22-rdf-syntax-ns#"
   xmlns:svg="http://www.w3.org/2000/svg"
   xmlns="http://www.w3.org/2000/svg"
   xmlns:sodipodi="http://sodipodi.sourceforge.net/DTD/sodipodi-0.dtd"
   xmlns:inkscape="http://www.inkscape.org/namespaces/inkscape"
   version="1.2"
   width="1200"
   height="900"
   id="svg2"
   inkscape:version="0.91 r13725"
   sodipodi:docname="section_2_slide_1a.svg">
  <sodipodi:namedview
     pagecolor="#ffffff"
     bordercolor="#666666"
     borderopacity="1"
     objecttolerance="10"
     gridtolerance="10"
     guidetolerance="10"
     inkscape:pageopacity="0"
     inkscape:pageshadow="2"
     inkscape:window-width="1425"
     inkscape:window-height="769"
     id="namedview11204"
     showgrid="false"
     inkscape:zoom="0.61222222"
     inkscape:cx="363.15789"
     inkscape:cy="450"
     inkscape:window-x="0"
     inkscape:window-y="0"
     inkscape:window-maximized="0"
     inkscape:current-layer="svg2" />
  <defs
     id="defs4">
    <marker
       inkscape:stockid="TriangleOutM"
       orient="auto"
       refY="0.0"
       refX="0.0"
       id="TriangleOutM"
       style="overflow:visible"
       inkscape:isstock="true">
      <path
         id="path4496"
         d="M 5.77,0.0 L -2.88,5.0 L -2.88,-5.0 L 5.77,0.0 z "
         style="fill-rule:evenodd;stroke:#6e6e6e;stroke-width:1pt;stroke-opacity:1;fill:#6e6e6e;fill-opacity:1"
         transform="scale(0.4)" />
    </marker>
    <linearGradient
       id="linearGradient8335">
      <stop
         id="stop8337"
         style="stop-color:#3d49b8;stop-opacity:1"
         offset="0" />
    </linearGradient>
  </defs>
  <metadata
     id="metadata7">
    <rdf:RDF>
      <cc:Work
         rdf:about="">
        <dc:format>image/svg+xml</dc:format>
        <dc:type
           rdf:resource="http://purl.org/dc/dcmitype/StillImage" />
        <dc:title />
      </cc:Work>
    </rdf:RDF>
  </metadata>
  <g
     id="text4268"
     style="font-size:42.82638168px;font-style:normal;font-weight:normal;line-height:125%;letter-spacing:0px;word-spacing:0px;fill:#469ae9;fill-opacity:1;stroke:none;font-family:Sans"
     transform="translate(0,14)">
    <path
       d="m 175.61367,566.70106 c 1.01488,0.69148 1.77326,1.49447 2.27515,2.40898 0.50185,0.90338 0.75279,1.91827 0.75281,3.04469 -2e-5,1.21565 -0.3346,2.34207 -1.00375,3.37927 -0.65802,1.02605 -1.61715,1.80674 -2.87739,2.34207 -1.26027,0.52417 -2.91087,0.78626 -4.9518,0.78626 -2.65435,0 -4.65069,-0.41265 -5.98901,-1.23795 -0.74723,-0.46841 -1.12085,-1.02604 -1.12084,-1.6729 -1e-5,-0.49072 0.16171,-0.90337 0.48514,-1.23795 0.33458,-0.34573 0.73607,-0.5186 1.20449,-0.5186 0.32343,0 0.65801,0.11153 1.00374,0.33458 0.49072,0.33458 0.95355,0.55764 1.38852,0.66916 0.66915,0.15614 1.58925,0.23421 2.76029,0.23421 1.99632,0 3.4406,-0.25651 4.33283,-0.76954 0.8922,-0.52417 1.33831,-1.26025 1.33832,-2.20823 -10e-6,-0.70262 -0.2621,-1.37736 -0.78627,-2.02422 -0.51303,-0.658 -1.2045,-1.16545 -2.0744,-1.52234 -0.50188,-0.20074 -1.34949,-0.34015 -2.54281,-0.41823 -0.5688,-0.0334 -1.00933,-0.20632 -1.3216,-0.5186 -0.30113,-0.32342 -0.45169,-0.71934 -0.45168,-1.18776 -1e-5,-0.49071 0.16728,-0.90336 0.50187,-1.23795 0.33457,-0.33457 0.75837,-0.50186 1.27141,-0.50188 1.13756,2e-5 1.74538,-0.006 1.82346,-0.0167 0.4461,-0.0446 0.89221,-0.18958 1.33833,-0.43495 0.44609,-0.24535 0.80298,-0.57993 1.07066,-1.00374 0.2788,-0.43494 0.41821,-0.88105 0.41822,-1.33833 -1e-5,-0.72491 -0.32344,-1.34946 -0.97028,-1.87365 -0.63572,-0.53531 -1.59485,-0.80298 -2.8774,-0.803 -1.65061,2e-5 -2.91086,0.47959 -3.78077,1.4387 -0.25651,0.27884 -0.46284,0.45728 -0.61897,0.53533 -0.23421,0.1227 -0.4963,0.18404 -0.78627,0.18402 -0.46842,2e-5 -0.86991,-0.16727 -1.20449,-0.50187 -0.33458,-0.33456 -0.50187,-0.74721 -0.50187,-1.23795 0,-0.76952 0.51302,-1.51675 1.53907,-2.24169 1.49446,-1.05949 3.36253,-1.58924 5.60424,-1.58926 2.119,2e-5 3.81978,0.60226 5.10236,1.80673 1.28254,1.20451 1.92382,2.65436 1.92384,4.34956 -2e-5,0.88108 -0.18961,1.70638 -0.56879,2.4759 -0.37921,0.75839 -0.94799,1.46101 -1.70636,2.10786"
       id="path8366"
       style="font-size:34.26110458px;font-variant:normal;font-weight:bold;font-stretch:normal;text-align:start;line-height:125%;writing-mode:lr-tb;text-anchor:start;fill:#469ae9;fill-opacity:1;stroke:#3d95b8;stroke-opacity:1;font-family:Courier New;-inkscape-font-specification:Courier New Bold"
       inkscape:connector-curvature="0" />
    <path
       d="m 200.75744,588.44883 -18.83692,0 c -0.8253,-1e-5 -1.41082,-0.15615 -1.75655,-0.46841 -0.35688,-0.31229 -0.53533,-0.72494 -0.53533,-1.23795 0,-0.51304 0.17845,-0.93126 0.53533,-1.25468 0.34573,-0.31229 0.93125,-0.46842 1.75655,-0.46842 l 18.83692,0 c 0.81412,0 1.39406,0.15613 1.73982,0.46842 0.35686,0.32342 0.53531,0.74164 0.53533,1.25468 -2e-5,0.50186 -0.17289,0.90893 -0.5186,1.22122 -0.34576,0.32342 -0.93127,0.48513 -1.75655,0.48514"
       id="path8368"
       style="font-size:34.26110458px;font-variant:normal;font-weight:bold;font-stretch:normal;text-align:start;line-height:125%;writing-mode:lr-tb;text-anchor:start;fill:#469ae9;fill-opacity:1;stroke:#3d95b8;stroke-opacity:1;font-family:Courier New;-inkscape-font-specification:Courier New Bold"
       inkscape:connector-curvature="0" />
    <path
       d="m 206.79663,577.29055 c -0.30113,0.35689 -0.54649,0.58552 -0.73608,0.68589 -0.17845,0.10038 -0.4015,0.15056 -0.66916,0.15056 -0.52418,0 -0.94799,-0.17286 -1.27141,-0.5186 -0.31228,-0.35688 -0.46842,-0.9424 -0.46842,-1.75655 l 0,-2.30861 c 0,-0.82529 0.15614,-1.41081 0.46842,-1.75655 0.32342,-0.35688 0.74723,-0.53532 1.27141,-0.53533 0.40149,10e-6 0.73607,0.10596 1.00374,0.31785 0.27881,0.21191 0.49071,0.5688 0.6357,1.07066 0.14498,0.49073 0.29554,0.82531 0.45169,1.00375 0.32342,0.34573 0.89778,0.69704 1.72309,1.05393 0.82529,0.35689 1.72866,0.53533 2.71011,0.53533 1.52791,0 2.78258,-0.35689 3.76403,-1.07066 0.62454,-0.43495 0.93682,-0.97028 0.93683,-1.60599 -1e-5,-0.4238 -0.15058,-0.81972 -0.45168,-1.18776 -0.30114,-0.37919 -0.79186,-0.69147 -1.47216,-0.93683 -0.44612,-0.16728 -1.44429,-0.39591 -2.9945,-0.68589 -1.87366,-0.34573 -3.29006,-0.76395 -4.24918,-1.25468 -0.95914,-0.49071 -1.71752,-1.18218 -2.27515,-2.07441 -0.55764,-0.8922 -0.83646,-1.85691 -0.83646,-2.89412 0,-1.63943 0.68589,-3.07255 2.05768,-4.29937 1.37177,-1.23793 3.15621,-1.8569 5.3533,-1.85692 0.88105,2e-5 1.6952,0.10039 2.44244,0.30112 0.75837,0.18962 1.44426,0.48516 2.05767,0.88664 0.4461,-0.43494 0.8922,-0.65241 1.33833,-0.65243 0.50185,2e-5 0.90892,0.17846 1.22122,0.53533 0.32341,0.34575 0.48512,0.92569 0.48514,1.73982 l 0,2.57627 c -2e-5,0.82532 -0.16173,1.41641 -0.48514,1.77328 -0.3123,0.34575 -0.71937,0.51862 -1.22122,0.5186 -0.42382,2e-5 -0.79186,-0.12824 -1.10412,-0.38477 -0.24538,-0.18958 -0.42939,-0.56877 -0.55206,-1.13757 -0.12269,-0.56877 -0.27883,-0.97585 -0.46841,-1.22122 -0.32345,-0.42379 -0.80859,-0.78068 -1.45543,-1.07066 -0.64687,-0.28996 -1.3941,-0.43494 -2.24169,-0.43496 -1.23796,2e-5 -2.2194,0.28999 -2.94432,0.86991 -0.71378,0.56881 -1.07066,1.16548 -1.07066,1.79001 0,0.42382 0.14498,0.83647 0.43496,1.23795 0.30111,0.39036 0.73607,0.69706 1.30486,0.9201 0.37919,0.15615 1.44427,0.40709 3.19525,0.75281 1.76212,0.34574 3.11159,0.72493 4.04843,1.13757 0.94797,0.41266 1.73423,1.05952 2.3588,1.94057 0.62453,0.88108 0.93681,1.92943 0.93683,3.14507 -2e-5,1.69521 -0.59669,3.05026 -1.79001,4.06516 -1.5837,1.33832 -3.60234,2.00748 -6.05592,2.00748 -0.94799,0 -1.87366,-0.1171 -2.77702,-0.35131 -0.89222,-0.22305 -1.76213,-0.56321 -2.60973,-1.02047"
       id="path8370"
       style="font-size:34.26110458px;font-variant:normal;font-weight:bold;font-stretch:normal;text-align:start;line-height:125%;writing-mode:lr-tb;text-anchor:start;fill:#469ae9;fill-opacity:1;stroke:#3d95b8;stroke-opacity:1;font-family:Courier New;-inkscape-font-specification:Courier New Bold"
       inkscape:connector-curvature="0" />
    <path
       d="m 240.95735,572.30529 -14.06913,0 c 0.35688,0.89222 0.98701,1.61157 1.89038,2.15805 0.91452,0.54649 2.14689,0.81973 3.69712,0.81972 1.2714,10e-6 2.96103,-0.27323 5.06891,-0.81972 0.86989,-0.22305 1.47214,-0.33458 1.80674,-0.33458 0.45724,0 0.84201,0.16172 1.1543,0.48514 0.31226,0.32343 0.46839,0.73051 0.46841,1.22122 -2e-5,0.44611 -0.16731,0.8253 -0.50187,1.13758 -0.44612,0.41265 -1.53351,0.80857 -3.26216,1.18776 -1.72869,0.36804 -3.39044,0.55206 -4.98526,0.55206 -2.74357,0 -4.94065,-0.77511 -6.59125,-2.32534 -1.63945,-1.55022 -2.45917,-3.45733 -2.45917,-5.72134 0,-2.40897 0.88664,-4.36627 2.65992,-5.87189 1.78443,-1.51676 3.83652,-2.27514 6.15629,-2.27515 1.39408,10e-6 2.67106,0.24537 3.83095,0.73607 1.17102,0.49074 2.04093,1.02049 2.60974,1.58926 0.80297,0.82532 1.46656,1.84579 1.99075,3.06142 0.35687,0.84762 0.53532,1.82905 0.53533,2.94431 l 0,1.45543 m -3.79749,-3.42945 c -0.52419,-0.98143 -1.21008,-1.71193 -2.05767,-2.19151 -0.84762,-0.49071 -1.85694,-0.73607 -3.02796,-0.73608 -1.15989,10e-6 -2.16364,0.24537 -3.01123,0.73608 -0.84762,0.47958 -1.53908,1.21008 -2.07441,2.19151 l 10.17127,0"
       id="path8372"
       style="font-size:34.26110458px;font-variant:normal;font-weight:bold;font-stretch:normal;text-align:start;line-height:125%;writing-mode:lr-tb;text-anchor:start;fill:#469ae9;fill-opacity:1;stroke:#3d95b8;stroke-opacity:1;font-family:Courier New;-inkscape-font-specification:Courier New Bold"
       inkscape:connector-curvature="0" />
    <path
       d="m 248.63599,576.27008 0,5.62096 2.05768,0 c 0.82529,0 1.4108,0.15613 1.75655,0.46841 0.35687,0.32343 0.53532,0.74165 0.53533,1.25468 -1e-5,0.50187 -0.17846,0.90894 -0.53533,1.22122 -0.34575,0.32343 -0.93126,0.48514 -1.75655,0.48515 l -6.07265,0 c -0.8253,-1e-5 -1.41639,-0.16172 -1.77328,-0.48515 -0.34573,-0.31228 -0.5186,-0.71935 -0.5186,-1.22122 0,-0.51303 0.17844,-0.93125 0.53533,-1.25468 0.35688,-0.31228 0.9424,-0.46841 1.75655,-0.46841 l 0.58552,0 0,-15.4911 -0.58552,0 c -0.8253,10e-6 -1.41639,-0.15613 -1.77328,-0.46842 -0.34573,-0.32341 -0.5186,-0.74164 -0.5186,-1.25468 0,-0.50185 0.17287,-0.90893 0.5186,-1.22122 0.35689,-0.32341 0.94798,-0.48513 1.77328,-0.48514 l 4.01497,0 0,1.17103 c 0.80299,-0.54646 1.63387,-0.95354 2.49263,-1.22122 0.85875,-0.26765 1.73981,-0.40148 2.64319,-0.40149 2.34206,10e-6 4.33839,0.79743 5.989,2.39225 1.65059,1.5837 2.47588,3.40158 2.4759,5.45367 -2e-5,2.26401 -0.97588,4.13208 -2.92758,5.60424 -1.62831,1.22679 -3.46293,1.84019 -5.50386,1.84019 -0.88107,0 -1.75098,-0.12825 -2.60973,-0.38477 -0.85877,-0.25651 -1.71195,-0.64128 -2.55955,-1.1543 m 10.17127,-5.88863 c -2e-5,-0.47956 -0.18961,-1.08738 -0.56879,-1.82347 -0.37921,-0.74722 -0.96472,-1.36619 -1.75655,-1.85692 -0.7807,-0.50186 -1.7008,-0.7528 -2.76029,-0.75281 -1.70638,10e-6 -3.06143,0.64129 -4.06516,1.92384 -0.68033,0.88108 -1.02048,1.72868 -1.02048,2.54282 0,0.91453 0.48514,1.80674 1.45543,2.67665 0.98143,0.85876 2.1915,1.28814 3.63021,1.28814 1.44983,0 2.6599,-0.42938 3.6302,-1.28814 0.97027,-0.85875 1.45541,-1.76212 1.45543,-2.71011"
       id="path8374"
       style="font-size:34.26110458px;font-variant:normal;font-weight:bold;font-stretch:normal;text-align:start;line-height:125%;writing-mode:lr-tb;text-anchor:start;fill:#469ae9;fill-opacity:1;stroke:#3d95b8;stroke-opacity:1;font-family:Courier New;-inkscape-font-specification:Courier New Bold"
       inkscape:connector-curvature="0" />
  </g>
  <g
     id="text4272"
     style="font-size:57.77713394px;font-style:normal;font-weight:normal;line-height:125%;letter-spacing:0px;word-spacing:0px;fill:#469ae9;fill-opacity:1;stroke:#3d95b8;stroke-opacity:1;font-family:Sans"
     transform="translate(0,8)">
    <path
       d="m 337.38101,466.84902 c -1e-5,0.87267 -0.30846,1.60241 -0.92533,2.18921 -0.61691,0.5868 -1.46702,0.8802 -2.55032,0.8802 -1.08334,0 -1.93344,-0.2934 -2.55032,-0.8802 -0.6169,-0.5868 -0.92535,-1.31654 -0.92534,-2.18921 -1e-5,-0.87267 0.30844,-1.60241 0.92534,-2.18921 0.61688,-0.5868 1.46698,-0.8802 2.55032,-0.8802 1.0833,0 1.93341,0.2934 2.55032,0.8802 0.61687,0.5868 0.92532,1.31654 0.92533,2.18921"
       id="path8399"
       style="font-size:46.22171021px;font-variant:normal;font-weight:bold;font-stretch:normal;text-align:start;line-height:125%;writing-mode:lr-tb;text-anchor:start;fill:#469ae9;fill-opacity:1;stroke:#3d95b8;stroke-opacity:1;font-family:Courier New;-inkscape-font-specification:Courier New Bold"
       inkscape:connector-curvature="0" />
    <path
       d="m 366.65326,450.05754 0,-1.37672 5.41661,0 c 1.11338,2e-5 1.9033,0.21819 2.36976,0.6545 0.48145,0.42131 0.72219,0.97802 0.72221,1.67012 -2e-5,0.6771 -0.24076,1.2338 -0.72221,1.67012 -0.46646,0.42131 -1.25638,0.63196 -2.36976,0.63194 l -0.78993,0 0,16.83662 c -2e-5,1.62498 -0.34608,3.03931 -1.03818,4.24301 -0.6771,1.21873 -1.7228,2.26443 -3.13712,3.13712 -1.41435,0.87266 -3.00924,1.309 -4.78467,1.30901 l -5.23605,0 c -1.11342,-10e-6 -1.91087,-0.21818 -2.39233,-0.65451 -0.46644,-0.4213 -0.69966,-0.97048 -0.69965,-1.64755 -10e-6,-0.69213 0.23321,-1.25636 0.69965,-1.69269 0.48146,-0.42129 1.27891,-0.63194 2.39233,-0.63193 l 5.10064,0 c 1.41432,-10e-6 2.51268,-0.38369 3.2951,-1.15103 0.78238,-0.76736 1.17358,-1.73783 1.1736,-2.91143 l 0,-2.25692 c -1.02316,0.66203 -2.06886,1.15855 -3.13712,1.48957 -1.05324,0.33101 -2.13656,0.49652 -3.24996,0.49652 -3.14465,0 -5.77772,-1.04571 -7.89922,-3.13712 -2.12151,-2.10645 -3.18226,-4.70191 -3.18226,-7.78637 0,-3.09949 1.06075,-5.69494 3.18226,-7.78637 2.1215,-2.10644 4.75457,-3.15967 7.89922,-3.15969 1.17358,2e-5 2.28699,0.17305 3.34024,0.51909 1.06826,0.33104 2.08387,0.84261 3.04684,1.53471 m -0.0226,8.86969 c -2e-5,-1.7002 -0.63196,-3.17472 -1.89581,-4.42356 -1.24885,-1.24881 -2.75346,-1.87323 -4.51384,-1.87324 -1.76041,1e-5 -3.27254,0.62443 -4.53641,1.87324 -1.24884,1.24884 -1.87325,2.72336 -1.87324,4.42356 -10e-6,1.71527 0.6244,3.19731 1.87324,4.44613 1.26387,1.23379 2.776,1.85068 4.53641,1.85068 1.76038,0 3.26499,-0.61689 4.51384,-1.85068 1.26385,-1.24882 1.89579,-2.73086 1.89581,-4.44613"
       id="path8401"
       style="font-size:46.22171021px;font-variant:normal;font-weight:bold;font-stretch:normal;text-align:start;line-height:125%;writing-mode:lr-tb;text-anchor:start;fill:#469ae9;fill-opacity:1;stroke:#3d95b8;stroke-opacity:1;font-family:Courier New;-inkscape-font-specification:Courier New Bold"
       inkscape:connector-curvature="0" />
    <path
       d="m 390.93771,439.9014 0,4.89752 -5.50688,0 0,-4.89752 5.50688,0 m 0.63194,8.77942 0,15.86614 5.55202,0 c 1.11339,0 1.90331,0.21817 2.36977,0.65451 0.48145,0.42129 0.72219,0.978 0.72221,1.67012 -2e-5,0.67707 -0.24076,1.23378 -0.72221,1.67012 -0.46646,0.42129 -1.25638,0.63194 -2.36977,0.63194 l -15.73073,0 c -1.11342,0 -1.91086,-0.21065 -2.39233,-0.63194 -0.46643,-0.43634 -0.69965,-1.00057 -0.69965,-1.69269 0,-0.67707 0.23322,-1.22626 0.69965,-1.64755 0.48147,-0.43634 1.27891,-0.65451 2.39233,-0.65451 l 5.55203,0 0,-11.23946 -3.72392,0 c -1.09838,2e-5 -1.8883,-0.21063 -2.36977,-0.63194 -0.48148,-0.43632 -0.72222,-1.00055 -0.72221,-1.69269 -1e-5,-0.67705 0.23321,-1.22624 0.69964,-1.64755 0.48147,-0.43631 1.27892,-0.65448 2.39234,-0.6545 l 8.3506,0"
       id="path8403"
       style="font-size:46.22171021px;font-variant:normal;font-weight:bold;font-stretch:normal;text-align:start;line-height:125%;writing-mode:lr-tb;text-anchor:start;fill:#469ae9;fill-opacity:1;stroke:#3d95b8;stroke-opacity:1;font-family:Courier New;-inkscape-font-specification:Courier New Bold"
       inkscape:connector-curvature="0" />
    <path
       d="m 415.8541,453.3075 0,9.27594 c -1e-5,0.99305 0.20311,1.64756 0.60937,1.96352 0.63192,0.49653 1.76038,0.74479 3.38538,0.74478 2.36222,10e-6 4.54391,-0.50404 6.54507,-1.51213 0.76732,-0.3912 1.36917,-0.5868 1.80553,-0.5868 0.60182,0 1.12091,0.2257 1.55728,0.67707 0.45135,0.45139 0.67704,1.00058 0.67707,1.64756 -3e-5,0.60184 -0.24076,1.12093 -0.72221,1.55727 -0.73729,0.70717 -2.19676,1.36168 -4.37843,1.96352 -2.16666,0.5868 -3.99476,0.8802 -5.48431,0.8802 -2.87383,0 -5.03294,-0.61689 -6.47736,-1.85068 -1.42939,-1.24882 -2.14408,-2.776 -2.14407,-4.58154 l 0,-10.17871 -1.67012,0 c -1.11342,2e-5 -1.91087,-0.21063 -2.39234,-0.63194 -0.46643,-0.43632 -0.69965,-1.00055 -0.69964,-1.69269 -1e-5,-0.67705 0.23321,-1.22624 0.69964,-1.64755 0.48147,-0.43631 1.27892,-0.65448 2.39234,-0.6545 l 1.67012,0 0,-4.1753 c -10e-6,-1.11339 0.21063,-1.90331 0.63193,-2.36977 0.43633,-0.48145 1.00056,-0.72219 1.69269,-0.72221 0.67707,2e-5 1.22625,0.24076 1.64756,0.72221 0.43632,0.46646 0.65449,1.25638 0.6545,2.36977 l 0,4.1753 8.55373,0 c 1.11339,2e-5 1.90331,0.21819 2.36976,0.6545 0.48145,0.42131 0.72219,0.97802 0.72222,1.67012 -3e-5,0.6771 -0.24077,1.2338 -0.72222,1.67012 -0.46645,0.42131 -1.25637,0.63196 -2.36976,0.63194 l -8.55373,0"
       id="path8405"
       style="font-size:46.22171021px;font-variant:normal;font-weight:bold;font-stretch:normal;text-align:start;line-height:125%;writing-mode:lr-tb;text-anchor:start;fill:#469ae9;fill-opacity:1;stroke:#3d95b8;stroke-opacity:1;font-family:Courier New;-inkscape-font-specification:Courier New Bold"
       inkscape:connector-curvature="0" />
  </g>
  <path
     d="m 213.1971,617.98395 0,28.61944"
     id="path4312"
     style="opacity:0.74000005;fill:none;stroke:#6e6e6e;stroke-width:5.2746377;stroke-linecap:round;stroke-linejoin:miter;stroke-miterlimit:4;stroke-opacity:1;stroke-dasharray:none"
     inkscape:connector-curvature="0" />
  <g
     id="text4162"
     style="font-size:42.82638168px;font-style:normal;font-weight:normal;line-height:125%;letter-spacing:0px;word-spacing:0px;fill:#469ae9;fill-opacity:1;stroke:#3d95b8;stroke-opacity:1;font-family:Sans"
     transform="translate(0,14)">
    <path
       d="m 524.27181,567.20293 c 0.88105,0.68033 1.53906,1.45544 1.97403,2.32534 0.44609,0.85876 0.66915,1.80674 0.66916,2.84394 -10e-6,1.14873 -0.28441,2.20824 -0.85318,3.17852 -0.55765,0.95913 -1.43871,1.71752 -2.64319,2.27515 -1.2045,0.55764 -2.54283,0.83645 -4.01497,0.83645 -1.47217,0 -2.79934,-0.27881 -3.98152,-0.83645 -1.18219,-0.55763 -2.05767,-1.32159 -2.62646,-2.29188 -0.55764,-0.97028 -0.83645,-2.02421 -0.83645,-3.16179 0,-1.0372 0.21747,-1.98518 0.65243,-2.84394 0.44611,-0.8699 1.10969,-1.64501 1.99076,-2.32534 -0.76954,-0.71376 -1.34948,-1.47214 -1.73982,-2.27515 -0.39035,-0.80298 -0.58552,-1.65059 -0.58552,-2.54282 0,-1.75095 0.66916,-3.25657 2.00749,-4.51684 1.33832,-1.27139 3.05583,-1.90709 5.15255,-1.90711 2.09669,2e-5 3.81421,0.63572 5.15255,1.90711 1.3383,1.26027 2.00746,2.76589 2.00748,4.51684 -2e-5,0.90339 -0.19519,1.75657 -0.58551,2.55955 -0.37921,0.80301 -0.95915,1.55581 -1.73983,2.25842 m -1.18776,-4.75105 c -1e-5,-0.84759 -0.33459,-1.56694 -1.00374,-2.15805 -0.65802,-0.60223 -1.55024,-0.90335 -2.67665,-0.90337 -1.13759,2e-5 -2.04095,0.30114 -2.71011,0.90337 -0.65801,0.59111 -0.98702,1.31046 -0.98701,2.15805 -10e-6,0.85877 0.329,1.58927 0.98701,2.19151 0.66916,0.5911 1.57252,0.88665 2.71011,0.88663 1.12641,2e-5 2.01863,-0.29553 2.67665,-0.88663 0.66915,-0.60224 1.00373,-1.33274 1.00374,-2.19151 m 0.4015,10.08762 c -2e-5,-0.90336 -0.39036,-1.71751 -1.17104,-2.44244 -0.76954,-0.73607 -1.72868,-1.10411 -2.87739,-1.10412 -1.14874,10e-6 -2.11345,0.36805 -2.89413,1.10412 -0.76954,0.72493 -1.15431,1.55023 -1.1543,2.4759 -10e-6,0.71377 0.33457,1.33833 1.00374,1.87365 0.66915,0.52418 1.68405,0.78627 3.04469,0.78627 1.37177,0 2.38666,-0.26209 3.04468,-0.78627 0.66915,-0.53532 1.00373,-1.17103 1.00375,-1.90711"
       id="path8388"
       style="font-size:34.26110458px;font-variant:normal;font-weight:bold;font-stretch:normal;text-align:start;line-height:125%;writing-mode:lr-tb;text-anchor:start;fill:#469ae9;fill-opacity:1;stroke:#3d95b8;stroke-opacity:1;font-family:Courier New;-inkscape-font-specification:Courier New Bold"
       inkscape:connector-curvature="0" />
    <path
       d="m 549.44904,588.44883 -18.83691,0 c -0.8253,-1e-5 -1.41082,-0.15615 -1.75656,-0.46841 -0.35688,-0.31229 -0.53532,-0.72494 -0.53532,-1.23795 0,-0.51304 0.17844,-0.93126 0.53532,-1.25468 0.34574,-0.31229 0.93126,-0.46842 1.75656,-0.46842 l 18.83691,0 c 0.81413,0 1.39407,0.15613 1.73982,0.46842 0.35687,0.32342 0.53531,0.74164 0.53533,1.25468 -2e-5,0.50186 -0.17289,0.90893 -0.5186,1.22122 -0.34575,0.32342 -0.93127,0.48513 -1.75655,0.48514"
       id="path8390"
       style="font-size:34.26110458px;font-variant:normal;font-weight:bold;font-stretch:normal;text-align:start;line-height:125%;writing-mode:lr-tb;text-anchor:start;fill:#469ae9;fill-opacity:1;stroke:#3d95b8;stroke-opacity:1;font-family:Courier New;-inkscape-font-specification:Courier New Bold"
       inkscape:connector-curvature="0" />
    <path
       d="m 570.12615,568.02265 c -2e-5,3.0447 -0.9703,5.58194 -2.91085,7.61172 -1.92943,2.01864 -4.16555,3.02796 -6.70835,3.02796 -2.28632,0 -4.34956,-0.84203 -6.18975,-2.52608 -2.27516,-2.08556 -3.41273,-4.79008 -3.41273,-8.1136 0,-3.32349 1.13757,-6.03359 3.41273,-8.13032 1.84019,-1.68403 3.90343,-2.52606 6.18975,-2.52608 2.5428,2e-5 4.77892,1.01491 6.70835,3.04468 1.94055,2.01866 2.91083,4.5559 2.91085,7.61172 m -3.42945,0 c -2e-5,-2.08554 -0.63015,-3.80863 -1.89039,-5.16927 -1.26026,-1.37177 -2.69339,-2.05766 -4.29936,-2.05768 -1.59485,2e-5 -3.02239,0.68591 -4.28264,2.05768 -1.26026,1.37179 -1.89039,3.09488 -1.89038,5.16927 -10e-6,2.07441 0.63012,3.79751 1.89038,5.16928 1.26025,1.36064 2.68779,2.04095 4.28264,2.04095 1.60597,0 3.0391,-0.68031 4.29936,-2.04095 1.26024,-1.36062 1.89037,-3.08371 1.89039,-5.16928"
       id="path8392"
       style="font-size:34.26110458px;font-variant:normal;font-weight:bold;font-stretch:normal;text-align:start;line-height:125%;writing-mode:lr-tb;text-anchor:start;fill:#469ae9;fill-opacity:1;stroke:#3d95b8;stroke-opacity:1;font-family:Courier New;-inkscape-font-specification:Courier New Bold"
       inkscape:connector-curvature="0" />
    <path
       d="m 586.38679,563.58945 c 0.41264,-0.39033 0.83644,-0.5855 1.27141,-0.58551 0.4907,1e-5 0.8922,0.17846 1.20449,0.53533 0.32341,0.34575 0.48513,0.92569 0.48515,1.73982 l 0,2.20823 c -2e-5,0.82531 -0.16174,1.41083 -0.48515,1.75656 -0.31229,0.34574 -0.72494,0.5186 -1.23795,0.5186 -0.46843,0 -0.86435,-0.13383 -1.18776,-0.4015 -0.23422,-0.20074 -0.41824,-0.60781 -0.55206,-1.22122 -0.13385,-0.62454 -0.45727,-1.08738 -0.97028,-1.38851 -0.90339,-0.53532 -2.05769,-0.80299 -3.46292,-0.803 -1.61715,10e-6 -2.91644,0.474 -3.89787,1.42197 -0.97029,0.94799 -1.45543,2.1469 -1.45543,3.59675 0,1.33833 0.46841,2.39783 1.40525,3.17852 0.93681,0.76954 2.49262,1.15431 4.6674,1.1543 1.42753,10e-6 2.59299,-0.14498 3.49637,-0.43495 0.53532,-0.17844 1.04277,-0.47956 1.52235,-0.90337 0.47955,-0.43495 0.9145,-0.65243 1.30486,-0.65243 0.4684,0 0.8699,0.17287 1.2045,0.5186 0.34571,0.34573 0.51858,0.75281 0.5186,1.22122 -2e-5,0.75838 -0.51862,1.47773 -1.55581,2.15805 -1.53908,1.01489 -3.79193,1.52234 -6.75853,1.52234 -2.66551,0 -4.73991,-0.55206 -6.22321,-1.65618 -2.00749,-1.4833 -3.01123,-3.51309 -3.01123,-6.08937 0,-2.44244 0.81414,-4.46107 2.44244,-6.05592 1.62829,-1.60598 3.75288,-2.40897 6.37377,-2.40898 0.94797,10e-6 1.82903,0.0892 2.64319,0.26766 0.81413,0.17846 1.56694,0.44612 2.25842,0.80299"
       id="path8394"
       style="font-size:34.26110458px;font-variant:normal;font-weight:bold;font-stretch:normal;text-align:start;line-height:125%;writing-mode:lr-tb;text-anchor:start;fill:#469ae9;fill-opacity:1;stroke:#3d95b8;stroke-opacity:1;font-family:Courier New;-inkscape-font-specification:Courier New Bold"
       inkscape:connector-curvature="0" />
    <path
       d="m 600.74032,566.39994 0,6.87564 c 0,0.73608 0.15056,1.22122 0.45169,1.45543 0.4684,0.36804 1.30485,0.55206 2.50936,0.55205 1.75096,10e-6 3.3681,-0.37361 4.85142,-1.12084 0.56877,-0.28997 1.01488,-0.43495 1.33833,-0.43496 0.44609,10e-6 0.83085,0.1673 1.1543,0.50187 0.33456,0.33459 0.50185,0.74166 0.50187,1.22122 -2e-5,0.44611 -0.17846,0.83088 -0.53533,1.15431 -0.5465,0.52418 -1.62831,1.00932 -3.24543,1.45543 -1.60601,0.43495 -2.96106,0.65243 -4.06516,0.65243 -2.13018,0 -3.73059,-0.45726 -4.80124,-1.37178 -1.05951,-0.92567 -1.58927,-2.05767 -1.58926,-3.396 l 0,-7.5448 -1.23795,0 c -0.82531,10e-6 -1.4164,-0.15613 -1.77328,-0.46842 -0.34574,-0.32341 -0.5186,-0.74164 -0.5186,-1.25468 0,-0.50185 0.17286,-0.90893 0.5186,-1.22122 0.35688,-0.32341 0.94797,-0.48513 1.77328,-0.48514 l 1.23795,0 0,-3.09488 c -10e-6,-0.82528 0.15613,-1.41079 0.46841,-1.75655 0.32342,-0.35686 0.74165,-0.53531 1.25468,-0.53533 0.50186,2e-5 0.90894,0.17847 1.22122,0.53533 0.32342,0.34576 0.48514,0.93127 0.48514,1.75655 l 0,3.09488 6.34032,0 c 0.82528,1e-5 1.4108,0.16173 1.75655,0.48514 0.35687,0.31229 0.53531,0.72494 0.53533,1.23795 -2e-5,0.50189 -0.17846,0.91454 -0.53533,1.23795 -0.34575,0.31229 -0.93127,0.46843 -1.75655,0.46842 l -6.34032,0"
       id="path8396"
       style="font-size:34.26110458px;font-variant:normal;font-weight:bold;font-stretch:normal;text-align:start;line-height:125%;writing-mode:lr-tb;text-anchor:start;fill:#469ae9;fill-opacity:1;stroke:#3d95b8;stroke-opacity:1;font-family:Courier New;-inkscape-font-specification:Courier New Bold"
       inkscape:connector-curvature="0" />
  </g>
  <path
     d="m 561.8887,617.98395 0,28.61944"
     id="path4170"
     style="opacity:0.74000005;fill:none;stroke:#6e6e6e;stroke-width:5.2746377;stroke-linecap:round;stroke-linejoin:miter;stroke-miterlimit:4;stroke-opacity:1;stroke-dasharray:none"
     inkscape:connector-curvature="0" />
  <path
     d="m 461.49978,520.41223 -143.8791,-0.1564"
     id="path6727"
     style="opacity:0.74000005;fill:none;stroke:#6e6e6e;stroke-width:7;stroke-linecap:round;stroke-linejoin:miter;stroke-miterlimit:4;stroke-opacity:1;stroke-dasharray:none;marker-end:url(#TriangleOutM)"
     inkscape:connector-curvature="0" />
  <g
     transform="matrix(0.12135947,0,0,-0.12135947,309.54139,247.30173)"
     id="g6793"
     style="fill:#9d68e5;stroke:none;stroke-width:65.91986599999999896;stroke-miterlimit:4;stroke-opacity:1;stroke-dasharray:none;stroke-dashoffset:0;fill-opacity:1">
    <path
       d="M 1408,131 Q 1408,11 1335,-58.5 1262,-128 1141,-128 H 267 Q 146,-128 73,-58.5 0,11 0,131 0,184 3.5,234.5 7,285 17.5,343.5 28,402 44,452 q 16,50 43,97.5 27,47.5 62,81 35,33.5 85.5,53.5 50.5,20 111.5,20 9,0 42,-21.5 33,-21.5 74.5,-48 41.5,-26.5 108,-48 Q 637,565 704,565 q 67,0 133.5,21.5 66.5,21.5 108,48 41.5,26.5 74.5,48 33,21.5 42,21.5 61,0 111.5,-20 50.5,-20 85.5,-53.5 35,-33.5 62,-81 27,-47.5 43,-97.5 16,-50 26.5,-108.5 10.5,-58.5 14,-109 Q 1408,184 1408,131 z m -320,893 Q 1088,865 975.5,752.5 863,640 704,640 545,640 432.5,752.5 320,865 320,1024 320,1183 432.5,1295.5 545,1408 704,1408 863,1408 975.5,1295.5 1088,1183 1088,1024 z"
       id="path6795"
       style="fill:#9d68e5;stroke:none;stroke-width:65.91986599999999896;stroke-miterlimit:4;stroke-opacity:1;stroke-dasharray:none;stroke-dashoffset:0;fill-opacity:1" />
  </g>
  <g
     transform="matrix(0.12135947,0,0,-0.12135947,846.43794,523.50862)"
     id="g6817"
     style="fill:#9d68e5;fill-opacity:1">
    <path
       d="M 1408,131 Q 1408,11 1335,-58.5 1262,-128 1141,-128 H 267 Q 146,-128 73,-58.5 0,11 0,131 0,184 3.5,234.5 7,285 17.5,343.5 28,402 44,452 q 16,50 43,97.5 27,47.5 62,81 35,33.5 85.5,53.5 50.5,20 111.5,20 9,0 42,-21.5 33,-21.5 74.5,-48 41.5,-26.5 108,-48 Q 637,565 704,565 q 67,0 133.5,21.5 66.5,21.5 108,48 41.5,26.5 74.5,48 33,21.5 42,21.5 61,0 111.5,-20 50.5,-20 85.5,-53.5 35,-33.5 62,-81 27,-47.5 43,-97.5 16,-50 26.5,-108.5 10.5,-58.5 14,-109 Q 1408,184 1408,131 z m -320,893 Q 1088,865 975.5,752.5 863,640 704,640 545,640 432.5,752.5 320,865 320,1024 320,1183 432.5,1295.5 545,1408 704,1408 863,1408 975.5,1295.5 1088,1183 1088,1024 z"
       id="path6819"
       style="fill:#9d68e5;fill-opacity:1" />
  </g>
  <path
     id="path11271"
     d="m 372.85715,302.57143 h -48.9643 c -9.01758,0 -16.23981,7.30384 -16.23981,16.32143 l -0.0816,97.92857 c 0,9.01759 7.30384,16.32143 16.32143,16.32143 h 130.57142 c 9.0176,0 16.32143,-7.30384 16.32143,-16.32143 v -81.60715 c 0,-9.01758 -7.30383,-16.32142 -16.32143,-16.32142 h -65.2857 l -16.32143,-16.32143 z"
     inkscape:connector-curvature="0"
     style="fill:#469ae9;fill-opacity:1;stroke:none;stroke-opacity:1;stroke-width:8;stroke-miterlimit:4;stroke-dasharray:none" />
  <path
     style="fill:#469ae9;stroke:none;stroke-width:8;stroke-miterlimit:4;stroke-opacity:1;stroke-dasharray:none;fill-opacity:1"
     inkscape:connector-curvature="0"
     d="m 550.46429,461.42857 h -36.37501 c -6.69906,0 -12.06437,5.42594 -12.06437,12.125 l -0.0606,72.75 c 0,6.69906 5.42594,12.125 12.125,12.125 h 97 c 6.69907,0 12.125,-5.42594 12.125,-12.125 v -60.62501 c 0,-6.69905 -5.42593,-12.12499 -12.125,-12.12499 h -48.49999 l -12.125,-12.125 z"
     id="path11790" />
  <path
     id="path11792"
     d="m 201.4643,461.42857 h -36.37501 c -6.69906,0 -12.06437,5.42594 -12.06437,12.125 l -0.0606,72.75 c 0,6.69906 5.42594,12.125 12.125,12.125 h 97 c 6.69907,0 12.125,-5.42594 12.125,-12.125 v -60.62501 c 0,-6.69905 -5.42593,-12.12499 -12.125,-12.12499 h -48.49999 l -12.125,-12.125 z"
     inkscape:connector-curvature="0"
     style="fill:#469ae9;stroke:none;stroke-width:8;stroke-miterlimit:4;stroke-opacity:1;stroke-dasharray:none;fill-opacity:1" />
  <path
     id="path11888"
     d="m 270.07143,662.71429 c -4.77517,0 -8.59963,3.86768 -8.59963,8.64286 L 261.42855,740.5 c 0,4.77518 3.82447,8.64286 8.59965,8.64286 h 51.90035 c 4.77519,0 8.64286,-3.86768 8.64286,-8.64286 v -51.85714 l -25.92855,-25.92857 h -34.57143 z m 30.25,30.25 v -23.76786 l 23.76787,23.76786 h -23.76787 z"
     inkscape:connector-curvature="0"
     style="fill:#469ae9;stroke:none;stroke-width:6;stroke-miterlimit:4;stroke-opacity:1;stroke-dasharray:none;fill-opacity:1" />
  <path
     style="fill:#469ae9;stroke:none;stroke-width:6;stroke-miterlimit:4;stroke-opacity:1;stroke-dasharray:none;fill-opacity:1"
     inkscape:connector-curvature="0"
     d="m 187.21429,662.71429 c -4.77517,0 -8.59963,3.86768 -8.59963,8.64286 L 178.57141,740.5 c 0,4.77518 3.82447,8.64286 8.59965,8.64286 h 51.90035 c 4.77519,0 8.64286,-3.86768 8.64286,-8.64286 v -51.85714 l -25.92855,-25.92857 h -34.57143 z m 30.25,30.25 v -23.76786 l 23.76787,23.76786 h -23.76787 z"
     id="path11897" />
  <path
     id="path11899"
     d="m 104.35715,662.71429 c -4.775173,0 -8.599633,3.86768 -8.599633,8.64286 L 95.714267,740.5 c 0,4.77518 3.82447,8.64286 8.599653,8.64286 h 51.90035 c 4.77519,0 8.64286,-3.86768 8.64286,-8.64286 v -51.85714 l -25.92855,-25.92857 h -34.57143 z m 30.25,30.25 v -23.76786 l 23.76787,23.76786 h -23.76787 z"
     inkscape:connector-curvature="0"
     style="fill:#469ae9;stroke:none;stroke-width:6;stroke-miterlimit:4;stroke-opacity:1;stroke-dasharray:none;fill-opacity:1" />
  <path
     style="fill:#469ae9;stroke:none;stroke-width:6;stroke-miterlimit:4;stroke-opacity:1;stroke-dasharray:none;fill-opacity:1"
     inkscape:connector-curvature="0"
     d="m 452.21429,662.71429 c -4.77517,0 -8.59963,3.86768 -8.59963,8.64286 L 443.57141,740.5 c 0,4.77518 3.82447,8.64286 8.59965,8.64286 h 51.90035 c 4.77519,0 8.64286,-3.86768 8.64286,-8.64286 v -51.85714 l -25.92855,-25.92857 h -34.57143 z m 30.25,30.25 v -23.76786 l 23.76787,23.76786 h -23.76787 z"
     id="path11901" />
  <path
     id="path11903"
     d="m 534.35715,662.71429 c -4.77517,0 -8.59963,3.86768 -8.59963,8.64286 L 525.71427,740.5 c 0,4.77518 3.82447,8.64286 8.59965,8.64286 h 51.90035 c 4.77519,0 8.64286,-3.86768 8.64286,-8.64286 v -51.85714 l -25.92855,-25.92857 h -34.57143 z m 30.25,30.25 v -23.76786 l 23.76787,23.76786 h -23.76787 z"
     inkscape:connector-curvature="0"
     style="fill:#469ae9;stroke:none;stroke-width:6;stroke-miterlimit:4;stroke-opacity:1;stroke-dasharray:none;fill-opacity:1" />
  <path
     style="fill:#469ae9;stroke:none;stroke-width:6;stroke-miterlimit:4;stroke-opacity:1;stroke-dasharray:none;fill-opacity:1"
     inkscape:connector-curvature="0"
     d="m 618.64286,662.71429 c -4.77517,0 -8.59963,3.86768 -8.59963,8.64286 L 609.99998,740.5 c 0,4.77518 3.82447,8.64286 8.59965,8.64286 h 51.90035 c 4.77519,0 8.64286,-3.86768 8.64286,-8.64286 v -51.85714 l -25.92855,-25.92857 h -34.57143 z m 30.25,30.25 v -23.76786 l 23.76787,23.76786 h -23.76787 z"
     id="path11905" />
</svg>
