<?xml version="1.0" encoding="UTF-8" standalone="no"?>
<!-- Created with Inkscape (http://www.inkscape.org/) -->

<svg
   xmlns:dc="http://purl.org/dc/elements/1.1/"
   xmlns:cc="http://creativecommons.org/ns#"
   xmlns:rdf="http://www.w3.org/1999/02/22-rdf-syntax-ns#"
   xmlns:svg="http://www.w3.org/2000/svg"
   xmlns="http://www.w3.org/2000/svg"
   xmlns:sodipodi="http://sodipodi.sourceforge.net/DTD/sodipodi-0.dtd"
   xmlns:inkscape="http://www.inkscape.org/namespaces/inkscape"
   version="1.1"
   width="1200"
   height="900"
   id="svg2"
   inkscape:version="0.48.2 r9819"
   sodipodi:docname="section_1_slide_2.svg">
  <sodipodi:namedview
     pagecolor="#ffffff"
     bordercolor="#666666"
     borderopacity="1"
     objecttolerance="10"
     gridtolerance="10"
     guidetolerance="10"
     inkscape:pageopacity="0"
     inkscape:pageshadow="2"
     inkscape:window-width="1440"
     inkscape:window-height="798"
     id="namedview3216"
     showgrid="false"
     inkscape:zoom="1.13"
     inkscape:cx="555.67745"
     inkscape:cy="273.00885"
     inkscape:window-x="0"
     inkscape:window-y="0"
     inkscape:window-maximized="1"
     inkscape:current-layer="svg2" />
  <defs
     id="defs4" />
  <metadata
     id="metadata7">
    <rdf:RDF>
      <cc:Work
         rdf:about="">
        <dc:format>image/svg+xml</dc:format>
        <dc:type
           rdf:resource="http://purl.org/dc/dcmitype/StillImage" />
        <dc:title />
      </cc:Work>
    </rdf:RDF>
  </metadata>
  <path
     style="fill:#469ae9"
     inkscape:connector-curvature="0"
     d="m 225.66568,580.60116 c -5.09615,0 -9.17771,4.12766 -9.17771,9.22383 l -0.0462,73.79066 c 0,5.09616 4.08154,9.22383 9.17771,9.22383 h 55.38912 c 5.09616,0 9.22383,-4.12767 9.22383,-9.22383 v -55.343 l -27.67147,-27.67149 h -36.89534 z m 32.28341,32.2834 v -25.36553 l 25.36554,25.36553 h -25.36554 z"
     id="path7314" />
  <path
     id="path7316"
     d="m 325.66568,580.60116 c -5.09615,0 -9.17771,4.12766 -9.17771,9.22383 l -0.0462,73.79066 c 0,5.09616 4.08154,9.22383 9.17771,9.22383 h 55.38912 c 5.09616,0 9.22383,-4.12767 9.22383,-9.22383 v -55.343 l -27.67147,-27.67149 h -36.89534 z m 32.28341,32.2834 v -25.36553 l 25.36554,25.36553 h -25.36554 z"
     inkscape:connector-curvature="0"
     style="fill:#469ae9" />
  <path
     id="path7318"
     d="m 426.55064,580.60116 c -5.09615,0 -9.17771,4.12766 -9.17771,9.22383 l -0.0462,73.79066 c 0,5.09616 4.08154,9.22383 9.17771,9.22383 h 55.38912 c 5.09616,0 9.22383,-4.12767 9.22383,-9.22383 v -55.343 l -27.67147,-27.67149 h -36.89534 z m 32.28341,32.2834 v -25.36553 l 25.36554,25.36553 h -25.36554 z"
     inkscape:connector-curvature="0"
     style="fill:#469ae9" />
  <path
     id="path7320"
     d="m 487.61258,721.30912 c -5.09615,0 -9.17771,4.12766 -9.17771,9.22383 l -0.0462,73.79066 c 0,5.09616 4.08154,9.22383 9.17771,9.22383 h 55.38912 c 5.09616,0 9.22383,-4.12767 9.22383,-9.22383 v -55.343 l -27.67147,-27.67149 h -36.89534 z m 32.28341,32.2834 v -25.36553 l 25.36554,25.36553 h -25.36554 z"
     inkscape:connector-curvature="0"
     style="fill:#469ae9" />
  <path
     style="fill:#469ae9"
     inkscape:connector-curvature="0"
     d="m 587.61258,721.30912 c -5.09615,0 -9.17771,4.12766 -9.17771,9.22383 l -0.0462,73.79066 c 0,5.09616 4.08154,9.22383 9.17771,9.22383 h 55.38912 c 5.09616,0 9.22383,-4.12767 9.22383,-9.22383 v -55.343 l -27.67147,-27.67149 h -36.89534 z m 32.28341,32.2834 v -25.36553 l 25.36554,25.36553 h -25.36554 z"
     id="path7322" />
  <path
     style="fill:#469ae9"
     inkscape:connector-curvature="0"
     d="m 688.49754,721.30912 c -5.09615,0 -9.17771,4.12766 -9.17771,9.22383 l -0.0462,73.79066 c 0,5.09616 4.08154,9.22383 9.17771,9.22383 h 55.38912 c 5.09616,0 9.22383,-4.12767 9.22383,-9.22383 v -55.343 l -27.67147,-27.67149 h -36.89534 z m 32.28341,32.2834 v -25.36553 l 25.36554,25.36553 h -25.36554 z"
     id="path7324" />
  <path
     id="path7301"
     d="m 311.84483,38.965507 c -9.15435,0 -16.48611,7.414611 -16.48611,16.568965 l -0.0829,132.551718 c 0,9.15436 7.33176,16.56897 16.48612,16.56897 h 99.49663 c 9.15436,0 16.56897,-7.41461 16.56897,-16.56897 V 88.672402 l -49.7069,-49.706895 h -66.27586 z m 57.99139,57.991382 v -45.56466 l 45.56465,45.56466 h -45.56465 z"
     inkscape:connector-curvature="0"
     style="fill:#469ae9" />
  <path
     style="fill:#469ae9"
     inkscape:connector-curvature="0"
     d="m 567.87931,38.965507 c -9.15435,0 -16.48611,7.414611 -16.48611,16.568965 l -0.0829,132.551718 c 0,9.15436 7.33176,16.56897 16.48612,16.56897 h 99.49663 c 9.15436,0 16.56897,-7.41461 16.56897,-16.56897 V 88.672402 l -49.7069,-49.706895 h -66.27586 z m 57.99139,57.991382 v -45.56466 l 45.56465,45.56466 H 625.8707 z"
     id="path7310" />
  <path
     id="path7312"
     d="m 800.63793,38.965507 c -9.15435,0 -16.48611,7.414611 -16.48611,16.568965 l -0.0829,132.551718 c 0,9.15436 7.33176,16.56897 16.48612,16.56897 h 99.49663 c 9.15436,0 16.56897,-7.41461 16.56897,-16.56897 V 88.672402 l -49.7069,-49.706895 h -66.27586 z m 57.99139,57.991382 v -45.56466 l 45.56465,45.56466 h -45.56465 z"
     inkscape:connector-curvature="0"
     style="fill:#469ae9" />
  <path
     id="path6677"
     d="m 339.05173,306.75862 h -52.73276 c -9.71162,0 -17.4897,7.86597 -17.4897,17.57759 l -0.0879,105.46551 c 0,9.71162 7.86597,17.57759 17.57759,17.57759 h 140.62069 c 9.71161,0 17.57758,-7.86597 17.57758,-17.57759 v -87.88793 c 0,-9.71161 -7.86597,-17.57758 -17.57758,-17.57758 h -70.31034 l -17.57759,-17.57759 z"
     inkscape:connector-curvature="0"
     style="fill:#469ae9" />
  <path
     style="fill:#469ae9"
     inkscape:connector-curvature="0"
     d="M 602.18966,306.75862 H 549.4569 c -9.71162,0 -17.4897,7.86597 -17.4897,17.57759 l -0.0879,105.46551 c 0,9.71162 7.86597,17.57759 17.57759,17.57759 h 140.62069 c 9.71161,0 17.57758,-7.86597 17.57758,-17.57759 v -87.88793 c 0,-9.71161 -7.86597,-17.57758 -17.57758,-17.57758 h -70.31034 l -17.57759,-17.57759 z"
     id="path6686" />
  <text
     sodipodi:linespacing="125%"
     style="font-size:68.54337311000000454px;font-style:normal;font-weight:normal;line-height:125%;letter-spacing:0px;word-spacing:0px;fill:#469ae9;fill-opacity:1;stroke:none;font-family:Sans"
     xml:space="preserve"
     id="text4256"
     y="256.72034"
     x="521.85559"><tspan
       style="font-size:54.83470153999999752px;font-style:normal;font-variant:normal;font-weight:bold;font-stretch:normal;text-align:start;line-height:125%;writing-mode:lr-tb;text-anchor:start;fill:#469ae9;fill-opacity:1;font-family:Courier New;-inkscape-font-specification:Courier New Bold"
       id="tspan4260"
       y="256.72034"
       x="521.85559">p2.sql</tspan></text>
  <text
     sodipodi:linespacing="125%"
     style="font-size:68.54337311000000454px;font-style:normal;font-weight:normal;line-height:125%;letter-spacing:0px;word-spacing:0px;fill:#469ae9;fill-opacity:1;stroke:none;font-family:Sans"
     xml:space="preserve"
     id="text4264"
     y="256.72034"
     x="771.05933"><tspan
       style="font-size:54.83470153999999752px;font-style:normal;font-variant:normal;font-weight:bold;font-stretch:normal;text-align:start;line-height:125%;writing-mode:lr-tb;text-anchor:start;fill:#469ae9;fill-opacity:1;font-family:Courier New;-inkscape-font-specification:Courier New Bold"
       id="tspan4266"
       y="256.72034"
       x="771.05933">p3.py</tspan></text>
  <text
     sodipodi:linespacing="125%"
     style="font-size:68.54337311000000454px;font-style:normal;font-weight:normal;line-height:125%;letter-spacing:0px;word-spacing:0px;fill:#469ae9;fill-opacity:1;stroke:none;font-family:Sans"
     xml:space="preserve"
     id="text4268"
     y="495.9241"
     x="272.68652"><tspan
       style="font-size:54.83470153999999752px;font-style:normal;font-variant:normal;font-weight:bold;font-stretch:normal;text-align:start;line-height:125%;writing-mode:lr-tb;text-anchor:start;fill:#469ae9;fill-opacity:1;font-family:Courier New;-inkscape-font-specification:Courier New Bold"
       id="tspan4270"
       y="495.9241"
       x="272.68652">3_Sep</tspan></text>
  <text
     sodipodi:linespacing="125%"
     style="font-size:68.54337311000000454px;font-style:normal;font-weight:normal;line-height:125%;letter-spacing:0px;word-spacing:0px;fill:#469ae9;fill-opacity:1;stroke:none;font-family:Sans"
     xml:space="preserve"
     id="text4272"
     y="495.9241"
     x="539.4837"><tspan
       style="font-size:54.83470153999999752px;font-style:normal;font-variant:normal;font-weight:bold;font-stretch:normal;text-align:start;line-height:125%;writing-mode:lr-tb;text-anchor:start;fill:#469ae9;fill-opacity:1;font-family:Courier New;-inkscape-font-specification:Courier New Bold"
       id="tspan4274"
       y="495.9241"
       x="539.4837">4_Oct</tspan></text>
  <path
     inkscape:connector-curvature="0"
     style="opacity:0.74000005000000002;fill:none;stroke:#6e6e6e;stroke-width:6.25751829000000015;stroke-linecap:round;stroke-linejoin:miter;stroke-miterlimit:4;stroke-opacity:1;stroke-dasharray:none"
     id="path4312"
     d="m 356.92593,530.07525 0,33.9524" />
  <path
     inkscape:connector-curvature="0"
     style="opacity:0.74000005000000002;fill:none;stroke:#6e6e6e;stroke-width:6.16890382999999964;stroke-linecap:round;stroke-linejoin:miter;stroke-miterlimit:4;stroke-opacity:1;stroke-dasharray:none"
     id="path4314"
     d="m 618.66438,530.07525 0,165.92179" />
  <text
     sodipodi:linespacing="125%"
     style="font-size:68.54337311000000454px;font-style:normal;font-weight:normal;line-height:125%;letter-spacing:0px;word-spacing:0px;fill:#469ae9;fill-opacity:1;stroke:none;font-family:Sans"
     xml:space="preserve"
     id="text4339"
     y="256.72034"
     x="293.57324"><tspan
       style="font-size:54.83470153999999752px;font-style:normal;font-variant:normal;font-weight:bold;font-stretch:normal;text-align:start;line-height:125%;writing-mode:lr-tb;text-anchor:start;fill:#469ae9;fill-opacity:1;font-family:Courier New;-inkscape-font-specification:Courier New Bold"
       id="tspan4341"
       y="256.72034"
       x="293.57324">p1.R</tspan></text>
  <text
     sodipodi:linespacing="125%"
     style="font-size:34.10051726999999744px;font-style:normal;font-weight:normal;line-height:125%;letter-spacing:0px;word-spacing:0px;fill:#469ae9;fill-opacity:1;stroke:none;font-family:Sans"
     xml:space="preserve"
     id="text4343"
     y="699.58484"
     x="303.50635"><tspan
       style="font-size:27.28041649000000035px;font-style:normal;font-variant:normal;font-weight:bold;font-stretch:normal;text-align:start;line-height:125%;writing-mode:lr-tb;text-anchor:start;fill:#469ae9;fill-opacity:1;font-family:Courier New;-inkscape-font-specification:Courier New Bold"
       id="tspan4345"
       y="699.58484"
       x="303.50635">p2.sql</tspan></text>
  <text
     sodipodi:linespacing="125%"
     style="font-size:34.10051726999999744px;font-style:normal;font-weight:normal;line-height:125%;letter-spacing:0px;word-spacing:0px;fill:#469ae9;fill-opacity:1;stroke:none;font-family:Sans"
     xml:space="preserve"
     id="text4347"
     y="699.58484"
     x="415.19897"><tspan
       style="font-size:27.28041649000000035px;font-style:normal;font-variant:normal;font-weight:bold;font-stretch:normal;text-align:start;line-height:125%;writing-mode:lr-tb;text-anchor:start;fill:#469ae9;fill-opacity:1;font-family:Courier New;-inkscape-font-specification:Courier New Bold"
       id="tspan4349"
       y="699.58484"
       x="415.19897">p3.py</tspan></text>
  <text
     sodipodi:linespacing="125%"
     style="font-size:34.10051726999999744px;font-style:normal;font-weight:normal;line-height:125%;letter-spacing:0px;word-spacing:0px;fill:#469ae9;fill-opacity:1;stroke:none;font-family:Sans"
     xml:space="preserve"
     id="text4351"
     y="699.58484"
     x="219.43454"><tspan
       style="font-size:27.28041649000000035px;font-style:normal;font-variant:normal;font-weight:bold;font-stretch:normal;text-align:start;line-height:125%;writing-mode:lr-tb;text-anchor:start;fill:#469ae9;fill-opacity:1;font-family:Courier New;-inkscape-font-specification:Courier New Bold"
       id="tspan4353"
       y="699.58484"
       x="219.43454">p1.R</tspan></text>
  <text
     x="567.29944"
     y="840.13654"
     id="text4034"
     xml:space="preserve"
     style="font-size:34.10051726999999744px;font-style:normal;font-weight:normal;line-height:125%;letter-spacing:0px;word-spacing:0px;fill:#469ae9;fill-opacity:1;stroke:none;font-family:Sans"
     sodipodi:linespacing="125%"><tspan
       x="567.29944"
       y="840.13654"
       id="tspan4036"
       style="font-size:27.28041649000000035px;font-style:normal;font-variant:normal;font-weight:bold;font-stretch:normal;text-align:start;line-height:125%;writing-mode:lr-tb;text-anchor:start;fill:#469ae9;fill-opacity:1;font-family:Courier New;-inkscape-font-specification:Courier New Bold">p2.sql</tspan></text>
  <text
     x="678.99207"
     y="840.13654"
     id="text4038"
     xml:space="preserve"
     style="font-size:34.10051726999999744px;font-style:normal;font-weight:normal;line-height:125%;letter-spacing:0px;word-spacing:0px;fill:#469ae9;fill-opacity:1;stroke:none;font-family:Sans"
     sodipodi:linespacing="125%"><tspan
       x="678.99207"
       y="840.13654"
       id="tspan4040"
       style="font-size:27.28041649000000035px;font-style:normal;font-variant:normal;font-weight:bold;font-stretch:normal;text-align:start;line-height:125%;writing-mode:lr-tb;text-anchor:start;fill:#469ae9;fill-opacity:1;font-family:Courier New;-inkscape-font-specification:Courier New Bold">p3.py</tspan></text>
  <text
     x="483.22763"
     y="840.13654"
     id="text4042"
     xml:space="preserve"
     style="font-size:34.10051726999999744px;font-style:normal;font-weight:normal;line-height:125%;letter-spacing:0px;word-spacing:0px;fill:#469ae9;fill-opacity:1;stroke:none;font-family:Sans"
     sodipodi:linespacing="125%"><tspan
       x="483.22763"
       y="840.13654"
       id="tspan4044"
       style="font-size:27.28041649000000035px;font-style:normal;font-variant:normal;font-weight:bold;font-stretch:normal;text-align:start;line-height:125%;writing-mode:lr-tb;text-anchor:start;fill:#469ae9;fill-opacity:1;font-family:Courier New;-inkscape-font-specification:Courier New Bold">p1.R</tspan></text>
</svg>
