<?xml version="1.0" encoding="UTF-8" standalone="no"?>
<!-- Created with Inkscape (http://www.inkscape.org/) -->

<svg
   xmlns:dc="http://purl.org/dc/elements/1.1/"
   xmlns:cc="http://creativecommons.org/ns#"
   xmlns:rdf="http://www.w3.org/1999/02/22-rdf-syntax-ns#"
   xmlns:svg="http://www.w3.org/2000/svg"
   xmlns="http://www.w3.org/2000/svg"
   xmlns:sodipodi="http://sodipodi.sourceforge.net/DTD/sodipodi-0.dtd"
   xmlns:inkscape="http://www.inkscape.org/namespaces/inkscape"
   version="1.2"
   width="1200"
   height="900"
   id="svg2"
   inkscape:version="0.91 r13725"
   sodipodi:docname="section_2_slide_3d.svg">
  <sodipodi:namedview
     pagecolor="#ffffff"
     bordercolor="#666666"
     borderopacity="1"
     objecttolerance="10"
     gridtolerance="10"
     guidetolerance="10"
     inkscape:pageopacity="0"
     inkscape:pageshadow="2"
     inkscape:window-width="1440"
     inkscape:window-height="805"
     id="namedview3162"
     showgrid="false"
     inkscape:zoom="0.67"
     inkscape:cx="383.58209"
     inkscape:cy="450"
     inkscape:window-x="0"
     inkscape:window-y="0"
     inkscape:window-maximized="0"
     inkscape:current-layer="svg2" />
  <defs
     id="defs4">
    <marker
       inkscape:stockid="TriangleOutM"
       orient="auto"
       refY="0.0"
       refX="0.0"
       id="marker9514"
       style="overflow:visible"
       inkscape:isstock="true">
      <path
         id="path9516"
         d="M 5.77,0.0 L -2.88,5.0 L -2.88,-5.0 L 5.77,0.0 z "
         style="fill-rule:evenodd;stroke:#6e6e6e;stroke-width:1pt;stroke-opacity:1;fill:#6e6e6e;fill-opacity:1"
         transform="scale(0.4)" />
    </marker>
    <marker
       inkscape:stockid="TriangleInM"
       orient="auto"
       refY="0.0"
       refX="0.0"
       id="TriangleInM"
       style="overflow:visible"
       inkscape:isstock="true">
      <path
         id="path4487"
         d="M 5.77,0.0 L -2.88,5.0 L -2.88,-5.0 L 5.77,0.0 z "
         style="fill-rule:evenodd;stroke:#6e6e6e;stroke-width:1pt;stroke-opacity:1;fill:#6e6e6e;fill-opacity:1"
         transform="scale(-0.4)" />
    </marker>
    <marker
       inkscape:stockid="TriangleOutM"
       orient="auto"
       refY="0.0"
       refX="0.0"
       id="marker9414"
       style="overflow:visible"
       inkscape:isstock="true">
      <path
         id="path9416"
         d="M 5.77,0.0 L -2.88,5.0 L -2.88,-5.0 L 5.77,0.0 z "
         style="fill-rule:evenodd;stroke:#6e6e6e;stroke-width:1pt;stroke-opacity:1;fill:#6e6e6e;fill-opacity:1"
         transform="scale(0.4)" />
    </marker>
    <marker
       inkscape:isstock="true"
       style="overflow:visible"
       id="marker9038"
       refX="0.0"
       refY="0.0"
       orient="auto"
       inkscape:stockid="TriangleOutM"
       inkscape:collect="always">
      <path
         transform="scale(0.4)"
         style="fill-rule:evenodd;stroke:#6e6e6e;stroke-width:1pt;stroke-opacity:1;fill:#6e6e6e;fill-opacity:1"
         d="M 5.77,0.0 L -2.88,5.0 L -2.88,-5.0 L 5.77,0.0 z "
         id="path9040" />
    </marker>
    <marker
       inkscape:isstock="true"
       style="overflow:visible"
       id="marker8774"
       refX="0.0"
       refY="0.0"
       orient="auto"
       inkscape:stockid="TriangleOutM"
       inkscape:collect="always">
      <path
         transform="scale(0.4)"
         style="fill-rule:evenodd;stroke:#6e6e6e;stroke-width:1pt;stroke-opacity:1;fill:#6e6e6e;fill-opacity:1"
         d="M 5.77,0.0 L -2.88,5.0 L -2.88,-5.0 L 5.77,0.0 z "
         id="path8776" />
    </marker>
    <marker
       inkscape:stockid="TriangleOutM"
       orient="auto"
       refY="0.0"
       refX="0.0"
       id="TriangleOutM"
       style="overflow:visible"
       inkscape:isstock="true"
       inkscape:collect="always">
      <path
         id="path4496"
         d="M 5.77,0.0 L -2.88,5.0 L -2.88,-5.0 L 5.77,0.0 z "
         style="fill-rule:evenodd;stroke:#6e6e6e;stroke-width:1pt;stroke-opacity:1;fill:#6e6e6e;fill-opacity:1"
         transform="scale(0.4)" />
    </marker>
    <linearGradient
       id="linearGradient8335">
      <stop
         id="stop8337"
         style="stop-color:#3d49b8;stop-opacity:1"
         offset="0" />
    </linearGradient>
  </defs>
  <metadata
     id="metadata7">
    <rdf:RDF>
      <cc:Work
         rdf:about="">
        <dc:format>image/svg+xml</dc:format>
        <dc:type
           rdf:resource="http://purl.org/dc/dcmitype/StillImage" />
        <dc:title />
      </cc:Work>
    </rdf:RDF>
  </metadata>
  <path
     inkscape:connector-curvature="0"
     style="fill:none;stroke:#6e6e6e;stroke-width:4;stroke-linecap:round;stroke-linejoin:miter;stroke-miterlimit:4;stroke-dasharray:none;stroke-opacity:1;marker-start:url(#TriangleInM)"
     id="path3999"
     d="m 868.30078,511.07518 36.0634,0"
     sodipodi:nodetypes="cc" />
  <path
     style="fill:none;stroke:#6e6e6e;stroke-width:4;stroke-linecap:round;stroke-linejoin:miter;stroke-miterlimit:4;stroke-dasharray:none;stroke-opacity:1;marker-end:url(#marker9514)"
     d="m 599.15374,254.70137 0,31.0828"
     id="path9510"
     inkscape:connector-curvature="0"
     sodipodi:nodetypes="cc" />
  <path
     sodipodi:nodetypes="cc"
     inkscape:connector-curvature="0"
     id="path9512"
     d="m 599.15374,126.82077 0,31.0828"
     style="fill:none;stroke:#6e6e6e;stroke-width:4;stroke-linecap:round;stroke-linejoin:miter;stroke-miterlimit:4;stroke-dasharray:none;stroke-opacity:1;marker-end:url(#TriangleOutM)" />
  <path
     sodipodi:nodetypes="cc"
     inkscape:connector-curvature="0"
     id="path9036"
     d="m 965.87015,425.32823 0,31.0828"
     style="fill:none;stroke:#6e6e6e;stroke-width:4;stroke-linecap:round;stroke-linejoin:miter;stroke-miterlimit:4;stroke-dasharray:none;stroke-opacity:1;marker-end:url(#marker9038)" />
  <path
     sodipodi:nodetypes="cc"
     inkscape:connector-curvature="0"
     id="path8772"
     d="m 806.61642,682.04465 0,31.0828"
     style="fill:none;stroke:#6e6e6e;stroke-width:4;stroke-linecap:round;stroke-linejoin:miter;stroke-miterlimit:4;stroke-dasharray:none;stroke-opacity:1;marker-end:url(#marker8774)" />
  <g
     transform="matrix(0.12135947,0,0,-0.12135947,294.92192,703.73252)"
     id="g6817"
     style="fill:#9d68e5;fill-opacity:1">
    <path
       d="M 1408,131 Q 1408,11 1335,-58.5 1262,-128 1141,-128 H 267 Q 146,-128 73,-58.5 0,11 0,131 0,184 3.5,234.5 7,285 17.5,343.5 28,402 44,452 q 16,50 43,97.5 27,47.5 62,81 35,33.5 85.5,53.5 50.5,20 111.5,20 9,0 42,-21.5 33,-21.5 74.5,-48 41.5,-26.5 108,-48 Q 637,565 704,565 q 67,0 133.5,21.5 66.5,21.5 108,48 41.5,26.5 74.5,48 33,21.5 42,21.5 61,0 111.5,-20 50.5,-20 85.5,-53.5 35,-33.5 62,-81 27,-47.5 43,-97.5 16,-50 26.5,-108.5 10.5,-58.5 14,-109 Q 1408,184 1408,131 z m -320,893 Q 1088,865 975.5,752.5 863,640 704,640 545,640 432.5,752.5 320,865 320,1024 320,1183 432.5,1295.5 545,1408 704,1408 863,1408 975.5,1295.5 1088,1183 1088,1024 z"
       id="path6819"
       style="fill:#9d68e5;fill-opacity:1"
       inkscape:connector-curvature="0" />
  </g>
  <g
     transform="matrix(0.10108913,0,0,-0.10108913,115.27574,272.86801)"
     id="g8574"
     style="fill:#9d68e5;fill-opacity:1">
    <path
       d="m 768,768 q 237,0 443,43 206,43 325,127 V 768 Q 1536,699 1433,640 1330,581 1153,546.5 976,512 768,512 560,512 383,546.5 206,581 103,640 0,699 0,768 V 938 Q 119,854 325,811 531,768 768,768 z M 768,0 q 237,0 443,43 206,43 325,127 V 0 q 0,-69 -103,-128 -103,-59 -280,-93.5 Q 976,-256 768,-256 560,-256 383,-221.5 206,-187 103,-128 0,-69 0,0 V 170 Q 119,86 325,43 531,0 768,0 z m 0,384 q 237,0 443,43 206,43 325,127 V 384 Q 1536,315 1433,256 1330,197 1153,162.5 976,128 768,128 560,128 383,162.5 206,197 103,256 0,315 0,384 V 554 Q 119,470 325,427 531,384 768,384 z m 0,1152 q 208,0 385,-34.5 177,-34.5 280,-93.5 103,-59 103,-128 v -128 q 0,-69 -103,-128 Q 1330,965 1153,930.5 976,896 768,896 560,896 383,930.5 206,965 103,1024 0,1083 0,1152 v 128 q 0,69 103,128 103,59 280,93.5 177,34.5 385,34.5 z"
       id="path8576"
       style="fill:#9d68e5;fill-opacity:1"
       inkscape:connector-curvature="0" />
  </g>
  <text
     sodipodi:linespacing="125%"
     style="font-size:40px;font-style:normal;font-weight:normal;line-height:125%;letter-spacing:0px;word-spacing:0px;fill:#3d95b8;fill-opacity:1;stroke:none;font-family:Sans"
     xml:space="preserve"
     id="text3185"
     y="726.16595"
     x="641.36743"><tspan
       style="font-size:40px;font-style:normal;font-variant:normal;font-weight:bold;font-stretch:normal;text-align:center;text-anchor:middle;fill:#3d95b8;fill-opacity:1;font-family:Courier New;-inkscape-font-specification:Courier New Bold"
       id="tspan3187"
       y="726.16595"
       x="641.36743">.git</tspan></text>
  <path
     inkscape:connector-curvature="0"
     style="fill:none;stroke:#6e6e6e;stroke-width:5;stroke-linecap:round;stroke-linejoin:miter;stroke-miterlimit:4;stroke-opacity:1;stroke-dasharray:none"
     id="path3189"
     d="m 502.2137,639.33876 c 114.82758,0 63.62068,0 63.62068,0" />
  <path
     inkscape:connector-curvature="0"
     style="fill:#469ae9;fill-opacity:1"
     id="path3191"
     d="m 638.09301,587.16427 h -35.15949 c -6.4752,0 -11.66123,5.24462 -11.66123,11.71983 l -0.0586,70.31896 c 0,6.4752 5.24462,11.71983 11.71983,11.71983 h 93.75862 c 6.47521,0 11.71983,-5.24463 11.71983,-11.71983 v -58.59914 c 0,-6.47521 -5.24462,-11.71982 -11.71983,-11.71982 h -46.87931 l -11.71984,-11.71983 z" />
  <path
     d="m 794.18456,478.5868 h -24.70175 c -4.54923,0 -8.19274,3.68467 -8.19274,8.23391 l -0.0412,49.40347 c 0,4.54924 3.68467,8.23392 8.23391,8.23392 h 65.8713 c 4.54924,0 8.23392,-3.68468 8.23392,-8.23392 v -41.16956 c 0,-4.54924 -3.68468,-8.23391 -8.23392,-8.23391 h -32.93565 l -8.23392,-8.23391 z"
     id="path3193"
     style="fill:#469ae9;fill-opacity:1"
     inkscape:connector-curvature="0" />
  <path
     inkscape:connector-curvature="0"
     style="fill:#469ae9;fill-opacity:1"
     id="path3195"
     d="m 794.18456,606.55513 h -24.70175 c -4.54923,0 -8.19274,3.68467 -8.19274,8.23391 l -0.0412,49.40347 c 0,4.54924 3.68467,8.23392 8.23391,8.23392 h 65.8713 c 4.54924,0 8.23392,-3.68468 8.23392,-8.23392 v -41.16956 c 0,-4.54924 -3.68468,-8.23391 -8.23392,-8.23391 h -32.93565 l -8.23392,-8.23391 z" />
  <path
     d="m 794.18456,732.52343 h -24.70175 c -4.54923,0 -8.19274,3.68467 -8.19274,8.23391 l -0.0412,49.40347 c 0,4.54924 3.68467,8.23392 8.23391,8.23392 h 65.8713 c 4.54924,0 8.23392,-3.68468 8.23392,-8.23392 v -41.16956 c 0,-4.54924 -3.68468,-8.23391 -8.23392,-8.23391 h -32.93565 l -8.23392,-8.23391 z"
     id="path3197"
     style="fill:#469ae9;fill-opacity:1"
     inkscape:connector-curvature="0" />
  <path
     inkscape:connector-curvature="0"
     style="fill:#469ae9;fill-opacity:1"
     id="path3199"
     d="m 955.05076,477.83329 -24.70175,0 c -4.54923,0 -8.19274,3.68467 -8.19274,8.23391 l -0.0412,49.40347 c 0,4.54924 3.68467,8.23392 8.23391,8.23392 l 65.8713,0 c 4.54922,0 8.23392,-3.68468 8.23392,-8.23392 l 0,-41.16956 c 0,-4.54924 -3.6847,-8.23391 -8.23392,-8.23391 l -32.93565,0 -8.23392,-8.23391 z" />
  <path
     d="m 953.46625,346.73469 -24.70175,0 c -4.54923,0 -8.19274,3.68467 -8.19274,8.23391 l -0.0412,49.40347 c 0,4.54924 3.68467,8.23392 8.23391,8.23392 l 65.8713,0 c 4.54924,0 8.23393,-3.68468 8.23393,-8.23392 l 0,-41.16956 c 0,-4.54924 -3.68469,-8.23391 -8.23393,-8.23391 l -32.93565,0 -8.23392,-8.23391 z"
     id="path3201"
     style="fill:#469ae9;fill-opacity:1"
     inkscape:connector-curvature="0" />
  <text
     x="436.16321"
     y="297.3913"
     id="text3203"
     xml:space="preserve"
     style="font-size:40px;font-style:normal;font-weight:normal;line-height:125%;letter-spacing:0px;word-spacing:0px;fill:#469ae9;fill-opacity:1;stroke:none;font-family:Sans"
     sodipodi:linespacing="125%"><tspan
       x="436.16321"
       y="297.3913"
       id="tspan3205"
       style="font-size:40px;font-style:normal;font-variant:normal;font-weight:bold;font-stretch:normal;text-align:center;text-anchor:middle;fill:#469ae9;fill-opacity:1;font-family:Courier New;-inkscape-font-specification:Courier New Bold">.git</tspan></text>
  <path
     d="m 297.00947,210.56411 c 114.82758,0 63.62068,0 63.62068,0"
     id="path3207"
     style="fill:none;stroke:#6e6e6e;stroke-width:5;stroke-linecap:round;stroke-linejoin:miter;stroke-miterlimit:4;stroke-opacity:1;stroke-dasharray:none"
     inkscape:connector-curvature="0" />
  <path
     d="m 432.88878,158.38962 h -35.15949 c -6.4752,0 -11.66123,5.24462 -11.66123,11.71983 l -0.0586,70.31896 c 0,6.4752 5.24462,11.71983 11.71983,11.71983 h 93.75862 c 6.47521,0 11.71983,-5.24463 11.71983,-11.71983 v -58.59914 c 0,-6.47521 -5.24462,-11.71982 -11.71983,-11.71982 H 444.6086 l -11.71984,-11.71983 z"
     id="path3209"
     style="fill:#469ae9;fill-opacity:1"
     inkscape:connector-curvature="0" />
  <path
     inkscape:connector-curvature="0"
     style="fill:#469ae9;fill-opacity:1"
     id="path3211"
     d="m 588.98033,49.812152 h -24.70175 c -4.54923,0 -8.19274,3.68467 -8.19274,8.23391 l -0.0412,49.403468 c 0,4.54924 3.68467,8.23392 8.23391,8.23392 h 65.8713 c 4.54924,0 8.23392,-3.68468 8.23392,-8.23392 V 66.279972 c 0,-4.54924 -3.68468,-8.23391 -8.23392,-8.23391 H 597.2142 l -8.23392,-8.23391 z" />
  <path
     d="m 588.98033,177.78048 h -24.70175 c -4.54923,0 -8.19274,3.68467 -8.19274,8.23391 l -0.0412,49.40347 c 0,4.54924 3.68467,8.23392 8.23391,8.23392 h 65.8713 c 4.54924,0 8.23392,-3.68468 8.23392,-8.23392 V 194.2483 c 0,-4.54924 -3.68468,-8.23391 -8.23392,-8.23391 H 597.2142 l -8.23392,-8.23391 z"
     id="path3213"
     style="fill:#469ae9;fill-opacity:1"
     inkscape:connector-curvature="0" />
  <path
     inkscape:connector-curvature="0"
     style="fill:#469ae9;fill-opacity:1"
     id="path3215"
     d="m 588.98033,305.74878 -24.70175,0 c -4.54923,0 -8.19274,3.68467 -8.19274,8.23391 l -0.0412,49.40347 c 0,4.54924 3.68467,8.23392 8.23391,8.23392 l 65.8713,0 c 4.54924,0 8.23392,-3.68468 8.23392,-8.23392 l 0,-41.16956 c 0,-4.54924 -3.68468,-8.23391 -8.23392,-8.23391 l -32.93565,0 -8.23392,-8.23391 z" />
  <path
     sodipodi:type="arc"
     style="fill:none;stroke:#ff4d4d;stroke-width:11.33938264000000018;stroke-linecap:round;stroke-miterlimit:4;stroke-opacity:1;stroke-dasharray:none;stroke-dashoffset:0"
     id="path3217"
     sodipodi:cx="808.09857"
     sodipodi:cy="645.68665"
     sodipodi:rx="99.823944"
     sodipodi:ry="222.62325"
     d="m 907.92252,645.68665 a 99.823944,222.62325 0 1 1 -199.64789,0 99.823944,222.62325 0 1 1 199.64789,0 z"
     transform="matrix(0.77771626,0,0,1,172.70554,0)" />
  <path
     style="fill:none;stroke:#6e6e6e;stroke-width:4;stroke-linecap:round;stroke-linejoin:miter;stroke-miterlimit:4;stroke-opacity:1;stroke-dasharray:none;marker-end:url(#TriangleOutM)"
     d="m 806.61642,558.16405 0,31.0828"
     id="path3993"
     inkscape:connector-curvature="0"
     sodipodi:nodetypes="cc" />
  <text
     xml:space="preserve"
     style="font-size:40px;font-style:normal;font-variant:normal;font-weight:bold;font-stretch:normal;text-align:center;line-height:100%;letter-spacing:0px;word-spacing:0px;text-anchor:middle;fill:#ff4d4d;fill-opacity:1;stroke:none;font-family:Arial;-inkscape-font-specification:Arial Bold"
     x="985.48053"
     y="752.98157"
     id="text4005"
     sodipodi:linespacing="100%"><tspan
       sodipodi:role="line"
       x="984.98053"
       y="752.98157"
       id="tspan4009"
       style="font-size:56px;font-style:normal;font-variant:normal;font-weight:bold;font-stretch:normal;text-align:center;line-height:100%;letter-spacing:-1px;text-anchor:middle;fill:#ff4d4d;fill-opacity:1;font-family:Arial;-inkscape-font-specification:Arial Bold">master</tspan><tspan
       sodipodi:role="line"
       x="984.98053"
       y="808.98157"
       style="font-size:56px;font-style:normal;font-variant:normal;font-weight:bold;font-stretch:normal;text-align:center;line-height:100%;letter-spacing:-1px;text-anchor:middle;fill:#ff4d4d;fill-opacity:1;font-family:Arial;-inkscape-font-specification:Arial Bold"
       id="tspan4013">branch</tspan></text>
  <text
     sodipodi:linespacing="100%"
     id="text4015"
     y="200.68103"
     x="965.20667"
     style="font-style:normal;font-variant:normal;font-weight:bold;font-stretch:normal;font-size:40px;line-height:100%;font-family:Arial;-inkscape-font-specification:'Arial Bold';text-align:center;letter-spacing:0px;word-spacing:0px;text-anchor:middle;fill:#ff4d4d;fill-opacity:1;stroke:none"
     xml:space="preserve"><tspan
       style="font-style:normal;font-variant:normal;font-weight:bold;font-stretch:normal;font-size:56px;line-height:100%;font-family:Arial;-inkscape-font-specification:'Arial Bold';text-align:center;letter-spacing:-1px;text-anchor:middle;fill:#ff4d4d;fill-opacity:1"
       id="tspan4017"
       y="200.68103"
       x="964.70667"
       sodipodi:role="line">feature</tspan><tspan
       id="tspan4019"
       style="font-style:normal;font-variant:normal;font-weight:bold;font-stretch:normal;font-size:56px;line-height:100%;font-family:Arial;-inkscape-font-specification:'Arial Bold';text-align:center;letter-spacing:-1px;text-anchor:middle;fill:#ff4d4d;fill-opacity:1"
       y="256.68103"
       x="964.70667"
       sodipodi:role="line">branch</tspan></text>
  <ellipse
     id="path3987"
     style="fill:none;stroke:#ff4d4d;stroke-width:10;stroke-linecap:round;stroke-miterlimit:4;stroke-dasharray:none;stroke-dashoffset:0;stroke-opacity:1"
     cx="960.9516"
     cy="439.02139"
     rx="77.634705"
     ry="159.73264" />
</svg>
