<?xml version="1.0" encoding="UTF-8" standalone="no"?>
<svg
   xmlns:dc="http://purl.org/dc/elements/1.1/"
   xmlns:cc="http://creativecommons.org/ns#"
   xmlns:rdf="http://www.w3.org/1999/02/22-rdf-syntax-ns#"
   xmlns:svg="http://www.w3.org/2000/svg"
   xmlns="http://www.w3.org/2000/svg"
   xmlns:sodipodi="http://sodipodi.sourceforge.net/DTD/sodipodi-0.dtd"
   xmlns:inkscape="http://www.inkscape.org/namespaces/inkscape"
   id="svg2"
   height="900"
   width="1200"
   version="1.2"
   inkscape:version="0.91 r13725"
   sodipodi:docname="section_2_slide_3b.svg">
  <sodipodi:namedview
     pagecolor="#ffffff"
     bordercolor="#666666"
     borderopacity="1"
     objecttolerance="10"
     gridtolerance="10"
     guidetolerance="10"
     inkscape:pageopacity="0"
     inkscape:pageshadow="2"
     inkscape:window-width="1275"
     inkscape:window-height="757"
     id="namedview18918"
     showgrid="false"
     inkscape:zoom="0.61666667"
     inkscape:cx="600"
     inkscape:cy="450"
     inkscape:window-x="0"
     inkscape:window-y="0"
     inkscape:window-maximized="0"
     inkscape:current-layer="svg2" />
  <defs
     id="defs4">
    <marker
       style="overflow:visible"
       id="marker9514"
       refX="0.0"
       refY="0.0"
       orient="auto">
      <path
         transform="scale(0.4)"
         style="fill-rule:evenodd;stroke:#6e6e6e;stroke-width:1pt;stroke-opacity:1;fill:#6e6e6e;fill-opacity:1"
         d="M 5.77,0.0 L -2.88,5.0 L -2.88,-5.0 L 5.77,0.0 z "
         id="path9516" />
    </marker>
    <marker
       style="overflow:visible"
       id="TriangleInM"
       refX="0.0"
       refY="0.0"
       orient="auto">
      <path
         transform="scale(-0.4)"
         style="fill-rule:evenodd;stroke:#6e6e6e;stroke-width:1pt;stroke-opacity:1;fill:#6e6e6e;fill-opacity:1"
         d="M 5.77,0.0 L -2.88,5.0 L -2.88,-5.0 L 5.77,0.0 z "
         id="path4487" />
    </marker>
    <marker
       style="overflow:visible"
       id="marker9414"
       refX="0.0"
       refY="0.0"
       orient="auto">
      <path
         transform="scale(0.4)"
         style="fill-rule:evenodd;stroke:#6e6e6e;stroke-width:1pt;stroke-opacity:1;fill:#6e6e6e;fill-opacity:1"
         d="M 5.77,0.0 L -2.88,5.0 L -2.88,-5.0 L 5.77,0.0 z "
         id="path9416" />
    </marker>
    <marker
       orient="auto"
       refY="0.0"
       refX="0.0"
       id="marker8774"
       style="overflow:visible">
      <path
         id="path8776"
         d="M 5.77,0.0 L -2.88,5.0 L -2.88,-5.0 L 5.77,0.0 z "
         style="fill-rule:evenodd;stroke:#6e6e6e;stroke-width:1pt;stroke-opacity:1;fill:#6e6e6e;fill-opacity:1"
         transform="scale(0.4)" />
    </marker>
    <marker
       style="overflow:visible"
       id="TriangleOutM"
       refX="0.0"
       refY="0.0"
       orient="auto">
      <path
         transform="scale(0.4)"
         style="fill-rule:evenodd;stroke:#6e6e6e;stroke-width:1pt;stroke-opacity:1;fill:#6e6e6e;fill-opacity:1"
         d="M 5.77,0.0 L -2.88,5.0 L -2.88,-5.0 L 5.77,0.0 z "
         id="path4496" />
    </marker>
    <linearGradient
       id="linearGradient8335">
      <stop
         offset="0"
         style="stop-color:#3d49b8;stop-opacity:1"
         id="stop8337" />
    </linearGradient>
  </defs>
  <metadata
     id="metadata7">
    <rdf:RDF>
      <cc:Work
         rdf:about="">
        <dc:format>image/svg+xml</dc:format>
        <dc:type
           rdf:resource="http://purl.org/dc/dcmitype/StillImage" />
        <dc:title />
      </cc:Work>
    </rdf:RDF>
  </metadata>
  <path
     d="m 868.30078,511.07518 34.3127,0"
     id="path3999"
     style="fill:none;stroke:#6e6e6e;stroke-width:4;stroke-linecap:round;stroke-linejoin:miter;stroke-miterlimit:4;stroke-dasharray:none;stroke-opacity:1;marker-start:url(#TriangleInM)"
     inkscape:connector-curvature="0"
     sodipodi:nodetypes="cc" />
  <path
     id="path9510"
     d="m 599.15374,254.70137 0,31.0828"
     style="fill:none;stroke:#6e6e6e;stroke-width:4;stroke-linecap:round;stroke-linejoin:miter;stroke-miterlimit:4;stroke-dasharray:none;stroke-opacity:1;marker-end:url(#marker9514)" />
  <path
     style="fill:none;stroke:#6e6e6e;stroke-width:4;stroke-linecap:round;stroke-linejoin:miter;stroke-miterlimit:4;stroke-dasharray:none;stroke-opacity:1;marker-end:url(#TriangleOutM)"
     d="m 599.15374,126.82077 0,31.0828"
     id="path9512" />
  <path
     style="fill:none;stroke:#6e6e6e;stroke-width:4;stroke-linecap:round;stroke-linejoin:miter;stroke-miterlimit:4;stroke-dasharray:none;stroke-opacity:1;marker-end:url(#marker8774)"
     d="m 806.61642,682.04465 0,31.0828"
     id="path8772" />
  <g
     style="fill:#9d68e5;fill-opacity:1"
     id="g6817"
     transform="matrix(0.12135947,0,0,-0.12135947,294.92192,703.73252)">
    <path
       style="fill:#9d68e5;fill-opacity:1"
       id="path6819"
       d="M 1408,131 Q 1408,11 1335,-58.5 1262,-128 1141,-128 H 267 Q 146,-128 73,-58.5 0,11 0,131 0,184 3.5,234.5 7,285 17.5,343.5 28,402 44,452 q 16,50 43,97.5 27,47.5 62,81 35,33.5 85.5,53.5 50.5,20 111.5,20 9,0 42,-21.5 33,-21.5 74.5,-48 41.5,-26.5 108,-48 Q 637,565 704,565 q 67,0 133.5,21.5 66.5,21.5 108,48 41.5,26.5 74.5,48 33,21.5 42,21.5 61,0 111.5,-20 50.5,-20 85.5,-53.5 35,-33.5 62,-81 27,-47.5 43,-97.5 16,-50 26.5,-108.5 10.5,-58.5 14,-109 Q 1408,184 1408,131 z m -320,893 Q 1088,865 975.5,752.5 863,640 704,640 545,640 432.5,752.5 320,865 320,1024 320,1183 432.5,1295.5 545,1408 704,1408 863,1408 975.5,1295.5 1088,1183 1088,1024 z" />
  </g>
  <g
     style="fill:#9d68e5;fill-opacity:1"
     id="g8574"
     transform="matrix(0.10108913,0,0,-0.10108913,115.27574,272.86801)">
    <path
       style="fill:#9d68e5;fill-opacity:1"
       id="path8576"
       d="m 768,768 q 237,0 443,43 206,43 325,127 V 768 Q 1536,699 1433,640 1330,581 1153,546.5 976,512 768,512 560,512 383,546.5 206,581 103,640 0,699 0,768 V 938 Q 119,854 325,811 531,768 768,768 z M 768,0 q 237,0 443,43 206,43 325,127 V 0 q 0,-69 -103,-128 -103,-59 -280,-93.5 Q 976,-256 768,-256 560,-256 383,-221.5 206,-187 103,-128 0,-69 0,0 V 170 Q 119,86 325,43 531,0 768,0 z m 0,384 q 237,0 443,43 206,43 325,127 V 384 Q 1536,315 1433,256 1330,197 1153,162.5 976,128 768,128 560,128 383,162.5 206,197 103,256 0,315 0,384 V 554 Q 119,470 325,427 531,384 768,384 z m 0,1152 q 208,0 385,-34.5 177,-34.5 280,-93.5 103,-59 103,-128 v -128 q 0,-69 -103,-128 Q 1330,965 1153,930.5 976,896 768,896 560,896 383,930.5 206,965 103,1024 0,1083 0,1152 v 128 q 0,69 103,128 103,59 280,93.5 177,34.5 385,34.5 z" />
  </g>
  <text
     x="641.36743"
     y="726.16595"
     id="text3185"
     xml:space="preserve"
     style="font-size:40px;font-style:normal;font-weight:normal;line-height:125%;letter-spacing:0px;word-spacing:0px;fill:#3d95b8;fill-opacity:1;stroke:none;font-family:Sans"><tspan
       x="641.36743"
       y="726.16595"
       id="tspan3187"
       style="font-size:40px;font-style:normal;font-variant:normal;font-weight:bold;font-stretch:normal;text-align:center;text-anchor:middle;fill:#3d95b8;fill-opacity:1;font-family:Courier New;-inkscape-font-specification:Courier New Bold">.git</tspan></text>
  <path
     d="m 502.2137,639.33876 c 114.82758,0 63.62068,0 63.62068,0"
     id="path3189"
     style="fill:none;stroke:#6e6e6e;stroke-width:5;stroke-linecap:round;stroke-linejoin:miter;stroke-miterlimit:4;stroke-opacity:1;stroke-dasharray:none" />
  <path
     d="m 638.09301,587.16427 h -35.15949 c -6.4752,0 -11.66123,5.24462 -11.66123,11.71983 l -0.0586,70.31896 c 0,6.4752 5.24462,11.71983 11.71983,11.71983 h 93.75862 c 6.47521,0 11.71983,-5.24463 11.71983,-11.71983 v -58.59914 c 0,-6.47521 -5.24462,-11.71982 -11.71983,-11.71982 h -46.87931 l -11.71984,-11.71983 z"
     id="path3191"
     style="fill:#469ae9;fill-opacity:1" />
  <path
     style="fill:#469ae9;fill-opacity:1"
     id="path3193"
     d="m 794.18456,478.5868 h -24.70175 c -4.54923,0 -8.19274,3.68467 -8.19274,8.23391 l -0.0412,49.40347 c 0,4.54924 3.68467,8.23392 8.23391,8.23392 h 65.8713 c 4.54924,0 8.23392,-3.68468 8.23392,-8.23392 v -41.16956 c 0,-4.54924 -3.68468,-8.23391 -8.23392,-8.23391 h -32.93565 l -8.23392,-8.23391 z" />
  <path
     d="m 794.18456,606.55513 h -24.70175 c -4.54923,0 -8.19274,3.68467 -8.19274,8.23391 l -0.0412,49.40347 c 0,4.54924 3.68467,8.23392 8.23391,8.23392 h 65.8713 c 4.54924,0 8.23392,-3.68468 8.23392,-8.23392 v -41.16956 c 0,-4.54924 -3.68468,-8.23391 -8.23392,-8.23391 h -32.93565 l -8.23392,-8.23391 z"
     id="path3195"
     style="fill:#469ae9;fill-opacity:1" />
  <path
     style="fill:#469ae9;fill-opacity:1"
     id="path3197"
     d="m 794.18456,732.52343 h -24.70175 c -4.54923,0 -8.19274,3.68467 -8.19274,8.23391 l -0.0412,49.40347 c 0,4.54924 3.68467,8.23392 8.23391,8.23392 h 65.8713 c 4.54924,0 8.23392,-3.68468 8.23392,-8.23392 v -41.16956 c 0,-4.54924 -3.68468,-8.23391 -8.23392,-8.23391 h -32.93565 l -8.23392,-8.23391 z" />
  <path
     d="m 955.05076,477.83329 -24.70175,0 c -4.54923,0 -8.19274,3.68467 -8.19274,8.23391 l -0.0412,49.40347 c 0,4.54924 3.68467,8.23392 8.23391,8.23392 l 65.8713,0 c 4.54922,0 8.23392,-3.68468 8.23392,-8.23392 l 0,-41.16956 c 0,-4.54924 -3.6847,-8.23391 -8.23392,-8.23391 l -32.93565,0 -8.23392,-8.23391 z"
     id="path3199"
     style="fill:#469ae9;fill-opacity:1" />
  <text
     style="font-size:40px;font-style:normal;font-weight:normal;line-height:125%;letter-spacing:0px;word-spacing:0px;fill:#469ae9;fill-opacity:1;stroke:none;font-family:Sans"
     xml:space="preserve"
     id="text3203"
     y="297.3913"
     x="436.16321"><tspan
       style="font-size:40px;font-style:normal;font-variant:normal;font-weight:bold;font-stretch:normal;text-align:center;text-anchor:middle;fill:#469ae9;fill-opacity:1;font-family:Courier New;-inkscape-font-specification:Courier New Bold"
       id="tspan3205"
       y="297.3913"
       x="436.16321">.git</tspan></text>
  <path
     style="fill:none;stroke:#6e6e6e;stroke-width:5;stroke-linecap:round;stroke-linejoin:miter;stroke-miterlimit:4;stroke-opacity:1;stroke-dasharray:none"
     id="path3207"
     d="m 297.00947,210.56411 c 114.82758,0 63.62068,0 63.62068,0" />
  <path
     style="fill:#469ae9;fill-opacity:1"
     id="path3209"
     d="m 432.88878,158.38962 h -35.15949 c -6.4752,0 -11.66123,5.24462 -11.66123,11.71983 l -0.0586,70.31896 c 0,6.4752 5.24462,11.71983 11.71983,11.71983 h 93.75862 c 6.47521,0 11.71983,-5.24463 11.71983,-11.71983 v -58.59914 c 0,-6.47521 -5.24462,-11.71982 -11.71983,-11.71982 H 444.6086 l -11.71984,-11.71983 z" />
  <path
     d="m 588.98033,49.812152 h -24.70175 c -4.54923,0 -8.19274,3.68467 -8.19274,8.23391 l -0.0412,49.403468 c 0,4.54924 3.68467,8.23392 8.23391,8.23392 h 65.8713 c 4.54924,0 8.23392,-3.68468 8.23392,-8.23392 V 66.279972 c 0,-4.54924 -3.68468,-8.23391 -8.23392,-8.23391 H 597.2142 l -8.23392,-8.23391 z"
     id="path3211"
     style="fill:#469ae9;fill-opacity:1" />
  <path
     style="fill:#469ae9;fill-opacity:1"
     id="path3213"
     d="m 588.98033,177.78048 h -24.70175 c -4.54923,0 -8.19274,3.68467 -8.19274,8.23391 l -0.0412,49.40347 c 0,4.54924 3.68467,8.23392 8.23391,8.23392 h 65.8713 c 4.54924,0 8.23392,-3.68468 8.23392,-8.23392 V 194.2483 c 0,-4.54924 -3.68468,-8.23391 -8.23392,-8.23391 H 597.2142 l -8.23392,-8.23391 z" />
  <path
     d="m 588.98033,305.74878 -24.70175,0 c -4.54923,0 -8.19274,3.68467 -8.19274,8.23391 l -0.0412,49.40347 c 0,4.54924 3.68467,8.23392 8.23391,8.23392 l 65.8713,0 c 4.54924,0 8.23392,-3.68468 8.23392,-8.23392 l 0,-41.16956 c 0,-4.54924 -3.68468,-8.23391 -8.23392,-8.23391 l -32.93565,0 -8.23392,-8.23391 z"
     id="path3215"
     style="fill:#469ae9;fill-opacity:1" />
  <path
     id="path3993"
     d="m 806.61642,558.16405 0,31.0828"
     style="fill:none;stroke:#6e6e6e;stroke-width:4;stroke-linecap:round;stroke-linejoin:miter;stroke-miterlimit:4;stroke-opacity:1;stroke-dasharray:none;marker-end:url(#TriangleOutM)" />
</svg>
