<?xml version="1.0" encoding="UTF-8" standalone="no"?>
<!-- Created with Inkscape (http://www.inkscape.org/) -->

<svg
   xmlns:dc="http://purl.org/dc/elements/1.1/"
   xmlns:cc="http://creativecommons.org/ns#"
   xmlns:rdf="http://www.w3.org/1999/02/22-rdf-syntax-ns#"
   xmlns:svg="http://www.w3.org/2000/svg"
   xmlns="http://www.w3.org/2000/svg"
   xmlns:sodipodi="http://sodipodi.sourceforge.net/DTD/sodipodi-0.dtd"
   xmlns:inkscape="http://www.inkscape.org/namespaces/inkscape"
   version="1.2"
   width="1200"
   height="900"
   id="svg2"
   inkscape:version="0.48.2 r9819"
   sodipodi:docname="section_1_slide_4a.svg">
  <sodipodi:namedview
     pagecolor="#ffffff"
     bordercolor="#666666"
     borderopacity="1"
     objecttolerance="10"
     gridtolerance="10"
     guidetolerance="10"
     inkscape:pageopacity="0"
     inkscape:pageshadow="2"
     inkscape:window-width="1443"
     inkscape:window-height="803"
     id="namedview4019"
     showgrid="false"
     inkscape:zoom="0.65"
     inkscape:cx="600"
     inkscape:cy="450"
     inkscape:window-x="0"
     inkscape:window-y="0"
     inkscape:window-maximized="0"
     inkscape:current-layer="svg2" />
  <defs
     id="defs4" />
  <metadata
     id="metadata7">
    <rdf:RDF>
      <cc:Work
         rdf:about="">
        <dc:format>image/svg+xml</dc:format>
        <dc:type
           rdf:resource="http://purl.org/dc/dcmitype/StillImage" />
        <dc:title></dc:title>
      </cc:Work>
    </rdf:RDF>
  </metadata>
  <path
     id="path5752"
     d="m 311.78711,42.709364 c -8.97952,0 -16.17125,7.272988 -16.17125,16.252504 l -0.0811,130.020092 c 0,8.9795 7.19173,16.25251 16.17125,16.25251 h 97.59633 c 8.9795,0 16.25251,-7.27301 16.25251,-16.25251 V 91.466895 L 376.79733,42.709364 h -65.01004 z m 56.88377,56.883783 V 54.898751 l 44.69439,44.694396 h -44.69439 z"
     inkscape:connector-curvature="0"
     style="fill:#469ae9;fill-opacity:1" />
  <path
     style="fill:#469ae9;fill-opacity:1"
     inkscape:connector-curvature="0"
     d="m 571.12777,42.709364 c -8.97952,0 -16.17125,7.272988 -16.17125,16.252504 l -0.0811,130.020092 c 0,8.9795 7.19173,16.25251 16.17125,16.25251 H 668.643 c 8.9795,0 16.25251,-7.27301 16.25251,-16.25251 V 91.466895 L 636.13799,42.709364 h -65.01004 z m 56.88377,56.883783 V 54.898751 l 44.69439,44.694396 h -44.69439 z"
     id="path5754" />
  <path
     id="path5756"
     d="m 802.0948,42.709364 c -8.97952,0 -16.17125,7.272988 -16.17125,16.252504 l -0.0811,130.020092 c 0,8.9795 7.19173,16.25251 16.17125,16.25251 h 97.59633 c 8.9795,0 16.25251,-7.27301 16.25251,-16.25251 V 91.466895 L 867.10502,42.709364 h -65.01004 z m 56.88377,56.883783 V 54.898751 l 44.69439,44.694396 h -44.69439 z"
     inkscape:connector-curvature="0"
     style="fill:#469ae9;fill-opacity:1" />
  <path
     id="path5733"
     d="m 279.69927,700.95112 c -5.0938,0 -9.17345,4.12574 -9.17345,9.21954 l -0.046,73.75635 c 0,5.09379 4.07965,9.21954 9.17345,9.21954 h 55.36336 c 5.09379,0 9.21954,-4.12575 9.21954,-9.21954 v -55.31726 l -27.65863,-27.65863 h -36.87817 z m 32.26839,32.2684 v -25.35374 l 25.35374,25.35374 h -25.35374 z"
     inkscape:connector-curvature="0"
     style="fill:#469ae9;fill-opacity:1" />
  <path
     style="fill:#469ae9;fill-opacity:1"
     inkscape:connector-curvature="0"
     d="m 375.30367,700.95112 c -5.0938,0 -9.17345,4.12574 -9.17345,9.21954 l -0.046,73.75635 c 0,5.09379 4.07965,9.21954 9.17345,9.21954 h 55.36336 c 5.09379,0 9.21954,-4.12575 9.21954,-9.21954 v -55.31726 l -27.65863,-27.65863 h -36.87817 z m 32.26839,32.2684 v -25.35374 l 25.35374,25.35374 h -25.35374 z"
     id="path5742" />
  <path
     id="path5744"
     d="m 472.90807,700.95112 c -5.0938,0 -9.17345,4.12574 -9.17345,9.21954 l -0.046,73.75635 c 0,5.09379 4.07965,9.21954 9.17345,9.21954 h 55.36336 c 5.09379,0 9.21954,-4.12575 9.21954,-9.21954 v -55.31726 l -27.65863,-27.65863 h -36.87817 z m 32.26839,32.2684 v -25.35374 l 25.35374,25.35374 h -25.35374 z"
     inkscape:connector-curvature="0"
     style="fill:#469ae9;fill-opacity:1" />
  <path
     style="fill:#469ae9;fill-opacity:1"
     inkscape:connector-curvature="0"
     d="m 710.4685,700.95112 c -5.0938,0 -9.17345,4.12574 -9.17345,9.21954 l -0.046,73.75635 c 0,5.09379 4.07965,9.21954 9.17345,9.21954 h 55.36336 c 5.09379,0 9.21954,-4.12575 9.21954,-9.21954 V 728.60975 L 747.34677,700.95112 H 710.4686 z m 32.26839,32.2684 v -25.35374 l 25.35374,25.35374 h -25.35374 z"
     id="path5746" />
  <path
     id="path5748"
     d="m 806.0729,700.95112 c -5.0938,0 -9.17345,4.12574 -9.17345,9.21954 l -0.046,73.75635 c 0,5.09379 4.07965,9.21954 9.17345,9.21954 h 55.36336 c 5.09379,0 9.21954,-4.12575 9.21954,-9.21954 V 728.60975 L 842.95117,700.95112 H 806.073 z m 32.26839,32.2684 v -25.35374 l 25.35374,25.35374 h -25.35374 z"
     inkscape:connector-curvature="0"
     style="fill:#469ae9;fill-opacity:1" />
  <path
     style="fill:#469ae9;fill-opacity:1"
     inkscape:connector-curvature="0"
     d="m 903.6773,700.95112 c -5.0938,0 -9.17345,4.12574 -9.17345,9.21954 l -0.046,73.75635 c 0,5.09379 4.07965,9.21954 9.17345,9.21954 h 55.36336 c 5.09379,0 9.21954,-4.12575 9.21954,-9.21954 V 728.60975 L 940.55557,700.95112 H 903.6774 z m 32.26839,32.2684 v -25.35374 l 25.35374,25.35374 h -25.35374 z"
     id="path5750" />
  <text
     x="521.85559"
     y="256.72034"
     id="text4256"
     xml:space="preserve"
     style="font-size:68.54337311000000454px;font-style:normal;font-weight:normal;line-height:125%;letter-spacing:0px;word-spacing:0px;fill:#469ae9;fill-opacity:1;stroke:none;font-family:Sans"
     sodipodi:linespacing="125%"><tspan
       x="521.85559"
       y="256.72034"
       id="tspan4260"
       style="font-size:54.83470153999999752px;font-style:normal;font-variant:normal;font-weight:bold;font-stretch:normal;text-align:start;line-height:125%;writing-mode:lr-tb;text-anchor:start;fill:#469ae9;fill-opacity:1;font-family:Courier New;-inkscape-font-specification:Courier New Bold">p2.sql</tspan></text>
  <text
     x="771.05933"
     y="256.72034"
     id="text4264"
     xml:space="preserve"
     style="font-size:68.54337311000000454px;font-style:normal;font-weight:normal;line-height:125%;letter-spacing:0px;word-spacing:0px;fill:#469ae9;fill-opacity:1;stroke:none;font-family:Sans"
     sodipodi:linespacing="125%"><tspan
       x="771.05933"
       y="256.72034"
       id="tspan4266"
       style="font-size:54.83470153999999752px;font-style:normal;font-variant:normal;font-weight:bold;font-stretch:normal;text-align:start;line-height:125%;writing-mode:lr-tb;text-anchor:start;fill:#469ae9;fill-opacity:1;font-family:Courier New;-inkscape-font-specification:Courier New Bold">p3.py</tspan></text>
  <text
     x="343.09714"
     y="625.2196"
     id="text4268"
     xml:space="preserve"
     style="font-size:50.80668639999999669px;font-style:normal;font-weight:normal;line-height:125%;letter-spacing:0px;word-spacing:0px;fill:#469ae9;fill-opacity:1;stroke:none;font-family:Sans"
     sodipodi:linespacing="125%"><tspan
       x="343.09714"
       y="625.2196"
       id="tspan4270"
       style="font-size:40.64535141000000351px;font-style:normal;font-variant:normal;font-weight:bold;font-stretch:normal;text-align:start;line-height:125%;writing-mode:lr-tb;text-anchor:start;fill:#469ae9;fill-opacity:1;font-family:Courier New;-inkscape-font-specification:Courier New Bold">3_Sep</tspan></text>
  <text
     x="539.4837"
     y="495.9241"
     id="text4272"
     xml:space="preserve"
     style="font-size:68.54337311000000454px;font-style:normal;font-weight:normal;line-height:125%;letter-spacing:0px;word-spacing:0px;fill:#469ae9;fill-opacity:1;stroke:none;font-family:Sans"
     sodipodi:linespacing="125%"><tspan
       x="539.4837"
       y="495.9241"
       id="tspan4274"
       style="font-size:54.83470153999999752px;font-style:normal;font-variant:normal;font-weight:bold;font-stretch:normal;text-align:start;line-height:125%;writing-mode:lr-tb;text-anchor:start;fill:#469ae9;fill-opacity:1;font-family:Courier New;-inkscape-font-specification:Courier New Bold">.git</tspan></text>
  <path
     d="m 405.68455,651.10973 0,33.9524"
     id="path4312"
     style="opacity:0.74000005;fill:none;stroke:#6e6e6e;stroke-width:6.25751829;stroke-linecap:round;stroke-linejoin:miter;stroke-miterlimit:4;stroke-opacity:1;stroke-dasharray:none" />
  <text
     x="293.57324"
     y="256.72034"
     id="text4339"
     xml:space="preserve"
     style="font-size:68.54337311000000454px;font-style:normal;font-weight:normal;line-height:125%;letter-spacing:0px;word-spacing:0px;fill:#469ae9;fill-opacity:1;stroke:none;font-family:Sans"
     sodipodi:linespacing="125%"><tspan
       x="293.57324"
       y="256.72034"
       id="tspan4341"
       style="font-size:54.83470153999999752px;font-style:normal;font-variant:normal;font-weight:bold;font-stretch:normal;text-align:start;line-height:125%;writing-mode:lr-tb;text-anchor:start;fill:#469ae9;fill-opacity:1;font-family:Courier New;-inkscape-font-specification:Courier New Bold">p1.R</tspan></text>
  <text
     x="773.37299"
     y="625.2196"
     id="text4162"
     xml:space="preserve"
     style="font-size:50.80668639999999669px;font-style:normal;font-weight:normal;line-height:125%;letter-spacing:0px;word-spacing:0px;fill:#469ae9;fill-opacity:1;stroke:none;font-family:Sans"
     sodipodi:linespacing="125%"><tspan
       x="773.37299"
       y="625.2196"
       id="tspan4164"
       style="font-size:40.64535141000000351px;font-style:normal;font-variant:normal;font-weight:bold;font-stretch:normal;text-align:start;line-height:125%;writing-mode:lr-tb;text-anchor:start;fill:#469ae9;fill-opacity:1;font-family:Courier New;-inkscape-font-specification:Courier New Bold">8_Oct</tspan></text>
  <path
     d="m 835.96042,651.10973 0,33.9524"
     id="path4170"
     style="opacity:0.74000005;fill:none;stroke:#6e6e6e;stroke-width:6.25751829;stroke-linecap:round;stroke-linejoin:miter;stroke-miterlimit:4;stroke-opacity:1;stroke-dasharray:none" />
  <path
     d="m 510.45113,443.43865 -39.92043,30.5837"
     id="path6727"
     style="opacity:0.74000005;fill:none;stroke:#6e6e6e;stroke-width:5.55751896;stroke-linecap:round;stroke-linejoin:miter;stroke-miterlimit:4;stroke-opacity:1;stroke-dasharray:none"
     inkscape:connector-curvature="0"
     sodipodi:nodetypes="cc" />
  <path
     id="path4897"
     d="m 603.53447,306.75862 h -52.38361 c -9.64732,0 -17.3739,7.81389 -17.3739,17.46121 l -0.0873,104.76724 c 0,9.64731 7.81389,17.46121 17.46121,17.46121 h 139.68965 c 9.64732,0 17.46121,-7.8139 17.46121,-17.46121 v -87.30603 c 0,-9.64732 -7.81389,-17.46121 -17.46121,-17.46121 h -69.84484 l -17.46121,-17.46121 z"
     inkscape:connector-curvature="0"
     style="fill:#469ae9;fill-opacity:1" />
  <path
     style="fill:#469ae9;fill-opacity:1"
     inkscape:connector-curvature="0"
     d="m 394.01723,483.96552 h -38.88361 c -7.16107,0 -12.8964,5.80014 -12.8964,12.96121 l -0.0648,77.76724 c 0,7.16106 5.80014,12.96121 12.96121,12.96121 h 103.68965 c 7.16107,0 12.96121,-5.80015 12.96121,-12.96121 v -64.80603 c 0,-7.16107 -5.80014,-12.96121 -12.96121,-12.96121 h -51.84484 l -12.96121,-12.96121 z"
     id="path5674" />
  <path
     id="path5676"
     d="m 821.63792,483.96552 h -38.88361 c -7.16107,0 -12.8964,5.80014 -12.8964,12.96121 l -0.0648,77.76724 c 0,7.16106 5.80014,12.96121 12.96121,12.96121 h 103.68965 c 7.16107,0 12.96121,-5.80015 12.96121,-12.96121 v -64.80603 c 0,-7.16107 -5.80014,-12.96121 -12.96121,-12.96121 h -51.84484 l -12.96121,-12.96121 z"
     inkscape:connector-curvature="0"
     style="fill:#469ae9;fill-opacity:1" />
  <path
     sodipodi:nodetypes="cc"
     inkscape:connector-curvature="0"
     style="opacity:0.74000005;fill:none;stroke:#6e6e6e;stroke-width:5.55751896;stroke-linecap:round;stroke-linejoin:miter;stroke-miterlimit:4;stroke-opacity:1;stroke-dasharray:none"
     id="path5896"
     d="m 721.91532,443.43865 39.92043,30.5837" />
</svg>
