<?xml version="1.0" encoding="UTF-8" standalone="no"?>
<!-- Created with Inkscape (http://www.inkscape.org/) -->

<svg
   xmlns:dc="http://purl.org/dc/elements/1.1/"
   xmlns:cc="http://creativecommons.org/ns#"
   xmlns:rdf="http://www.w3.org/1999/02/22-rdf-syntax-ns#"
   xmlns:svg="http://www.w3.org/2000/svg"
   xmlns="http://www.w3.org/2000/svg"
   xmlns:sodipodi="http://sodipodi.sourceforge.net/DTD/sodipodi-0.dtd"
   xmlns:inkscape="http://www.inkscape.org/namespaces/inkscape"
   version="1.2"
   width="1200"
   height="900"
   id="svg2"
   inkscape:version="0.91 r13725"
   sodipodi:docname="section_3_slide_1.svg">
  <sodipodi:namedview
     pagecolor="#ffffff"
     bordercolor="#666666"
     borderopacity="1"
     objecttolerance="10"
     gridtolerance="10"
     guidetolerance="10"
     inkscape:pageopacity="0"
     inkscape:pageshadow="2"
     inkscape:window-width="1440"
     inkscape:window-height="805"
     id="namedview3162"
     showgrid="false"
     inkscape:zoom="0.65222222"
     inkscape:cx="350.08517"
     inkscape:cy="450"
     inkscape:window-x="0"
     inkscape:window-y="0"
     inkscape:window-maximized="0"
     inkscape:current-layer="svg2" />
  <defs
     id="defs4">
    <marker
       inkscape:isstock="true"
       style="overflow:visible"
       id="marker17541"
       refX="0.0"
       refY="0.0"
       orient="auto"
       inkscape:stockid="TriangleOutM">
      <path
         transform="scale(0.4)"
         style="fill-rule:evenodd;stroke:#6e6e6e;stroke-width:1pt;stroke-opacity:1;fill:#6e6e6e;fill-opacity:1"
         d="M 5.77,0.0 L -2.88,5.0 L -2.88,-5.0 L 5.77,0.0 z "
         id="path17543" />
    </marker>
    <marker
       inkscape:isstock="true"
       style="overflow:visible"
       id="marker17519"
       refX="0.0"
       refY="0.0"
       orient="auto"
       inkscape:stockid="TriangleOutM">
      <path
         transform="scale(0.4)"
         style="fill-rule:evenodd;stroke:#6e6e6e;stroke-width:1pt;stroke-opacity:1;fill:#6e6e6e;fill-opacity:1"
         d="M 5.77,0.0 L -2.88,5.0 L -2.88,-5.0 L 5.77,0.0 z "
         id="path17521" />
    </marker>
    <marker
       inkscape:stockid="TriangleOutM"
       orient="auto"
       refY="0.0"
       refX="0.0"
       id="TriangleOutM"
       style="overflow:visible"
       inkscape:isstock="true"
       inkscape:collect="always">
      <path
         id="path4496"
         d="M 5.77,0.0 L -2.88,5.0 L -2.88,-5.0 L 5.77,0.0 z "
         style="fill-rule:evenodd;stroke:#6e6e6e;stroke-width:1pt;stroke-opacity:1;fill:#6e6e6e;fill-opacity:1"
         transform="scale(0.4)" />
    </marker>
    <linearGradient
       id="linearGradient8335">
      <stop
         id="stop8337"
         style="stop-color:#3d49b8;stop-opacity:1"
         offset="0" />
    </linearGradient>
  </defs>
  <metadata
     id="metadata7">
    <rdf:RDF>
      <cc:Work
         rdf:about="">
        <dc:format>image/svg+xml</dc:format>
        <dc:type
           rdf:resource="http://purl.org/dc/dcmitype/StillImage" />
        <dc:title />
      </cc:Work>
    </rdf:RDF>
  </metadata>
  <g
     transform="matrix(0.12135947,0,0,-0.12135947,304.12124,539.67801)"
     id="g6817"
     style="fill:#9d68e5;fill-opacity:1">
    <path
       d="M 1408,131 Q 1408,11 1335,-58.5 1262,-128 1141,-128 H 267 Q 146,-128 73,-58.5 0,11 0,131 0,184 3.5,234.5 7,285 17.5,343.5 28,402 44,452 q 16,50 43,97.5 27,47.5 62,81 35,33.5 85.5,53.5 50.5,20 111.5,20 9,0 42,-21.5 33,-21.5 74.5,-48 41.5,-26.5 108,-48 Q 637,565 704,565 q 67,0 133.5,21.5 66.5,21.5 108,48 41.5,26.5 74.5,48 33,21.5 42,21.5 61,0 111.5,-20 50.5,-20 85.5,-53.5 35,-33.5 62,-81 27,-47.5 43,-97.5 16,-50 26.5,-108.5 10.5,-58.5 14,-109 Q 1408,184 1408,131 z m -320,893 Q 1088,865 975.5,752.5 863,640 704,640 545,640 432.5,752.5 320,865 320,1024 320,1183 432.5,1295.5 545,1408 704,1408 863,1408 975.5,1295.5 1088,1183 1088,1024 z"
       id="path6819"
       style="fill:#9d68e5;fill-opacity:1"
       inkscape:connector-curvature="0" />
  </g>
  <text
     sodipodi:linespacing="125%"
     style="font-size:40px;font-style:normal;font-weight:normal;line-height:125%;letter-spacing:0px;word-spacing:0px;fill:#3d95b8;fill-opacity:1;stroke:none;font-family:Sans"
     xml:space="preserve"
     id="text3185"
     y="562.11145"
     x="589.23792"><tspan
       style="font-size:40px;font-style:normal;font-variant:normal;font-weight:bold;font-stretch:normal;text-align:center;text-anchor:middle;fill:#3d95b8;fill-opacity:1;font-family:Courier New;-inkscape-font-specification:Courier New Bold"
       id="tspan3187"
       y="562.11145"
       x="589.23792">.git</tspan></text>
  <path
     inkscape:connector-curvature="0"
     style="fill:#469ae9;fill-opacity:1"
     id="path3191"
     d="m 585.96354,423.10976 h -35.15949 c -6.4752,0 -11.66123,5.24462 -11.66123,11.71983 l -0.0586,70.31896 c 0,6.4752 5.24462,11.71983 11.71983,11.71983 h 93.75862 c 6.47521,0 11.71983,-5.24463 11.71983,-11.71983 v -58.59914 c 0,-6.47521 -5.24462,-11.71982 -11.71983,-11.71982 h -46.87931 l -11.71984,-11.71983 z" />
  <path
     d="m 754.32085,308.53229 -24.70175,0 c -4.54923,0 -8.19274,3.68467 -8.19274,8.23391 l -0.0412,49.40347 c 0,4.54924 3.68467,8.23392 8.23391,8.23392 l 65.8713,0 c 4.54924,0 8.23392,-3.68468 8.23392,-8.23392 l 0,-41.16956 c 0,-4.54924 -3.68468,-8.23391 -8.23392,-8.23391 l -32.93565,0 -8.23392,-8.23391 z"
     id="path3193"
     style="fill:#469ae9;fill-opacity:1"
     inkscape:connector-curvature="0" />
  <path
     inkscape:connector-curvature="0"
     style="fill:#469ae9;fill-opacity:1"
     id="path3195"
     d="M 754.32085,442.50062 H 729.6191 c -4.54923,0 -8.19274,3.68467 -8.19274,8.23391 l -0.0412,49.40347 c 0,4.54924 3.68467,8.23392 8.23391,8.23392 h 65.8713 c 4.54924,0 8.23392,-3.68468 8.23392,-8.23392 v -41.16956 c 0,-4.54924 -3.68468,-8.23391 -8.23392,-8.23391 h -32.93565 l -8.23392,-8.23391 z" />
  <path
     d="m 754.32085,574.46892 -24.70175,0 c -4.54923,0 -8.19274,3.68467 -8.19274,8.23391 l -0.0412,49.40347 c 0,4.54924 3.68467,8.23392 8.23391,8.23392 l 65.8713,0 c 4.54924,0 8.23392,-3.68468 8.23392,-8.23392 l 0,-41.16956 c 0,-4.54924 -3.68468,-8.23391 -8.23392,-8.23391 l -32.93565,0 -8.23392,-8.23391 z"
     id="path3197"
     style="fill:#469ae9;fill-opacity:1"
     inkscape:connector-curvature="0" />
  <path
     style="fill:none;stroke:#6e6e6e;stroke-width:4;stroke-linecap:round;stroke-linejoin:miter;stroke-miterlimit:4;stroke-dasharray:none;stroke-opacity:1;marker-end:url(#marker17519)"
     d="m 766.75271,388.10954 0,31.0828"
     id="path3993"
     inkscape:connector-curvature="0"
     sodipodi:nodetypes="cc" />
  <path
     sodipodi:nodetypes="cc"
     inkscape:connector-curvature="0"
     id="path3995"
     d="m 766.75271,521.36678 0,31.0828"
     style="fill:none;stroke:#6e6e6e;stroke-width:4;stroke-linecap:round;stroke-linejoin:miter;stroke-miterlimit:4;stroke-opacity:1;stroke-dasharray:none;marker-end:url(#TriangleOutM)" />
  <path
     sodipodi:nodetypes="cc"
     inkscape:connector-curvature="0"
     id="path8603"
     d="m 766.75271,251.78586 0,31.0828"
     style="fill:none;stroke:#6e6e6e;stroke-width:4;stroke-linecap:round;stroke-linejoin:miter;stroke-miterlimit:4;stroke-dasharray:none;stroke-opacity:1;marker-end:url(#marker17541)" />
  <circle
     id="path8605"
     style="fill:#6e6e6e;fill-opacity:1;fill-rule:nonzero;stroke:none"
     cx="766.14313"
     cy="217.98296"
     r="7.6660991" />
  <circle
     style="fill:#6e6e6e;fill-opacity:1;fill-rule:nonzero;stroke:none"
     id="path8609"
     cx="795.27429"
     cy="217.98296"
     r="7.6660991" />
  <circle
     style="fill:#6e6e6e;fill-opacity:1;fill-rule:nonzero;stroke:none"
     id="path8611"
     cx="737.01196"
     cy="217.98296"
     r="7.6660991" />
  <text
     xml:space="preserve"
     style="font-style:normal;font-variant:normal;font-weight:bold;font-stretch:normal;font-size:50px;line-height:125%;font-family:Arial;-inkscape-font-specification:'Arial Bold';letter-spacing:0px;word-spacing:0px;fill:#469ae9;fill-opacity:1;stroke:none"
     x="818.73932"
     y="623.88751"
     id="text8613"
     sodipodi:linespacing="125%"><tspan
       sodipodi:role="line"
       id="tspan8615"
       x="818.73932"
       y="623.88751"
       style="font-style:normal;font-variant:normal;font-weight:bold;font-stretch:normal;font-size:40px;font-family:'Courier New';-inkscape-font-specification:'Courier New Bold';letter-spacing:-1px">&quot;init&quot;</tspan></text>
  <text
     sodipodi:linespacing="125%"
     id="text8617"
     y="360.90625"
     x="818.73932"
     style="font-style:normal;font-variant:normal;font-weight:bold;font-stretch:normal;font-size:50px;line-height:125%;font-family:Arial;-inkscape-font-specification:'Arial Bold';letter-spacing:0px;word-spacing:0px;fill:#469ae9;fill-opacity:1;stroke:none"
     xml:space="preserve"><tspan
       style="font-style:normal;font-variant:normal;font-weight:bold;font-stretch:normal;font-size:40px;font-family:'Courier New';-inkscape-font-specification:'Courier New Bold';letter-spacing:-1px"
       y="360.90625"
       x="818.73932"
       id="tspan8619"
       sodipodi:role="line">&quot;moar&quot;</tspan></text>
  <text
     xml:space="preserve"
     style="font-style:normal;font-variant:normal;font-weight:bold;font-stretch:normal;font-size:50px;line-height:80.00000119%;font-family:Arial;-inkscape-font-specification:'Arial Bold';letter-spacing:0px;word-spacing:0px;fill:#469ae9;fill-opacity:1;stroke:none"
     x="818.73932"
     y="475.29807"
     id="text8621"
     sodipodi:linespacing="80.000001%"><tspan
       sodipodi:role="line"
       id="tspan8623"
       x="818.73932"
       y="475.29807"
       style="font-style:normal;font-variant:normal;font-weight:bold;font-stretch:normal;font-size:40px;line-height:80.00000119%;font-family:'Courier New';-inkscape-font-specification:'Courier New Bold';letter-spacing:-1px">&quot;fixed the</tspan><tspan
       sodipodi:role="line"
       x="818.73932"
       y="507.29807"
       style="font-style:normal;font-variant:normal;font-weight:bold;font-stretch:normal;font-size:40px;line-height:80.00000119%;font-family:'Courier New';-inkscape-font-specification:'Courier New Bold';letter-spacing:-1px"
       id="tspan8625"> thing&quot;</tspan></text>
</svg>
